<?xml version="1.0" encoding="utf-8"?>
<!-- Generator: Adobe Illustrator 21.0.0, SVG Export Plug-In . SVG Version: 6.00 Build 0)  -->
<svg version="1.1" id="Layer_1" xmlns="http://www.w3.org/2000/svg" xmlns:xlink="http://www.w3.org/1999/xlink" x="0px" y="0px"
	 viewBox="0 0 800 800" style="enable-background:new 0 0 800 800;" xml:space="preserve">
<style type="text/css">
	.st0{fill:#A4C964;}
	.st1{fill:#FFFFFF;}
</style>
<path class="st0" d="M266.3-24.7c1.2-1.7,4.2-2.1,6.3,0c3.1,2.9,5.8,5.3,8,8.7c-3.8,5.8-42.5,45.8-54.7,49c-4.3,2.2-10,0-10,0V16.3
	c1.5-1,7.2-0.2,12.3-1.3C238.2,11.8,264.8-17.5,266.3-24.7z"/>
<path class="st0" d="M282.7,11.4c-1.2-1.7-4.2-2.1-6.3,0c-3.1,2.9-5.8,5.3-8,8.7c3.8,5.8,42.5,45.8,54.7,49c4.3,2.2,10,0,10,0V52.4
	c-1.5-1-7.2-0.2-12.3-1.3C310.8,47.9,284.2,18.5,282.7,11.4z"/>
<path class="st0" d="M266.3,114.3c1.2-1.7,4.2-2.1,6.3,0c3.1,2.9,5.8,5.3,8,8.7c-3.8,5.8-42.5,45.8-54.7,49c-4.3,2.2-10,0-10,0
	v-16.7c1.5-1,7.2-0.2,12.3-1.3C238.2,150.8,264.8,121.5,266.3,114.3z"/>
<path class="st0" d="M282.7,150.4c-1.2-1.7-4.2-2.1-6.3,0c-3.1,2.9-5.8,5.3-8,8.7c3.8,5.8,42.5,45.8,54.7,49c4.3,2.2,10,0,10,0
	v-16.7c-1.5-1-7.2-0.2-12.3-1.3C310.8,186.9,284.2,157.5,282.7,150.4z"/>
<path class="st0" d="M266.3,44.8c1.2-1.7,4.2-2.1,6.3,0c3.1,2.9,5.8,5.3,8,8.7c-3.8,5.8-42.5,45.8-54.7,49c-4.3,2.2-10,0-10,0V85.8
	c1.5-1,7.2-0.2,12.3-1.3C238.2,81.3,264.8,52,266.3,44.8z"/>
<path class="st0" d="M282.7,80.9c-1.2-1.7-4.2-2.1-6.3,0c-3.1,2.9-5.8,5.3-8,8.7c3.8,5.8,42.5,45.8,54.7,49c4.3,2.2,10,0,10,0v-16.7
	c-1.5-1-7.2-0.2-12.3-1.3C310.8,117.4,284.2,88,282.7,80.9z"/>
<path class="st0" d="M266.3,183.8c1.2-1.7,4.2-2.1,6.3,0c3.1,2.9,5.8,5.3,8,8.7c-3.8,5.8-42.5,45.8-54.7,49c-4.3,2.2-10,0-10,0
	v-16.7c1.5-1,7.2-0.2,12.3-1.3C238.2,220.3,264.8,191,266.3,183.8z"/>
<path class="st0" d="M282.7,219.9c-1.2-1.7-4.2-2.1-6.3,0c-3.1,2.9-5.8,5.3-8,8.7c3.8,5.8,42.5,45.8,54.7,49c4.3,2.2,10,0,10,0
	v-16.7c-1.5-1-7.2-0.2-12.3-1.3C310.8,256.4,284.2,227,282.7,219.9z"/>
<g>
	<path class="st0" d="M269,275l-0.5,0.6C268.7,275.4,268.9,275.2,269,275z"/>
	<path class="st0" d="M276.4,267.1c2.1-2.4,3.7-4.2,4.3-5.1c-2.2-3.3-4.9-5.7-8-8.7c-2.2-2.1-5.2-1.7-6.3,0
		c-1.5,7.2-28.2,36.5-38,39.7c-5.1,1.1-10.8,0.3-12.3,1.3v3.8l0.9,0.4L216,299v12c0,0,5.7,2.2,10,0c8.3-2.2,28.8-21.4,42.3-35.3
		l-3.8-4.5l4.9,3.3c1.1-1.2,2.2-2.3,3.2-3.3l-2.3-8.2L276.4,267.1z M226.8,303c-0.1-0.6,1-0.6,1,0S226.8,303.6,226.8,303z
		 M255.9,272.8l1.2,0.4l1.2,1.4L255.9,272.8z"/>
	<path class="st0" d="M276.3,267.2l-3.7,4C274,269.8,275.2,268.4,276.3,267.2z"/>
	<path class="st0" d="M276.4,267.1c0,0-0.1,0.1-0.1,0.1L276.4,267.1L276.4,267.1z"/>
	<path class="st0" d="M268.3,275.7l0.2-0.2C268.4,275.6,268.4,275.7,268.3,275.7L268.3,275.7z"/>
	<path class="st0" d="M269.4,274.6L269.4,274.6c-0.1,0.1-0.3,0.3-0.4,0.4L269.4,274.6z"/>
</g>
<g>
	<path class="st0" d="M273.1,300.6l1.1-4.8l-0.6-3.9c-2,1.9-3.8,3.8-5.3,6.1c0.6,0.9,2,2.5,3.9,4.7l1-0.6L273.1,300.6z"/>
	<path class="st0" d="M333,330.4c-1.5-1-7.2-0.2-12.3-1.3c-9.8-3.2-36.5-32.5-38-39.7c-1.2-1.7-4.2-2.1-6.3,0
		c-0.9,0.9-1.8,1.7-2.7,2.6l1.5,4.3l-1,2.5l1.4-0.4l-1.2,1l-0.9,3.6l-1.2-0.2c11,12.3,40.4,41.6,50.7,44.3c1.5,0.7,3.1,1,4.6,1
		c0,0-3.4-6.1-6-7.4c-2.6-1.3-1-8.7-1-8.7s1.1,2.4,1.4,4.4c0.3,2,2.8,0.6,5,1.2c2.2,0.6,0.6,10.4,0.6,10.4c2.9,0,5.4-1,5.4-1V330.4z
		 M315.6,333.6c0.3-0.4,1.2,0,1.2,0C316.3,335.2,315.2,334,315.6,333.6z"/>
	<polygon class="st0" points="273.6,291.9 273.6,291.9 273.6,291.9 	"/>
	<polygon class="st0" points="272.3,302.8 272.3,302.8 272.3,302.8 	"/>
	<polygon class="st0" points="327.6,348 327.6,348 327.6,348 	"/>
</g>
<g>
	<path class="st0" d="M250.8,362.2l-4.8,4.3C247.6,365.1,249.2,363.7,250.8,362.2z"/>
	<path class="st0" d="M254.9,358.5c-0.3,0.3-0.9,0.8-1.3,1.2C254,359.3,254.5,358.9,254.9,358.5z"/>
	<path class="st0" d="M248.3,352.8c-2.2-0.9,3.9,1.3,4.8,2.7c0.9,1.4,1.5,3.3,2,2.9c12.2-11.5,23.6-23.8,25.6-26.8
		c-2.2-3.3-4.9-5.7-8-8.7c-2.2-2.1-5.2-1.7-6.3,0c-1.5,7.2-28.2,36.5-38,39.7c-5.1,1.1-10.8,0.3-12.3,1.3v16.7c0,0,5.7,2.2,10,0
		c4.3-1.1,11.8-6.7,19.9-13.8l-7.1-11.2c0,0,5,0.2,4.2,0.8c-0.8,0.6,1.9,4,1.9,4l6.1,1.9c0.7-0.6,1.4-1.3,2.1-1.9
		C253.1,360.1,250.6,353.7,248.3,352.8z M260.3,332.8l0.7,1.6l3,4l5.9,1.5c0,0-3.7,5.3-3.7,3.9s0.9-1.4-3-2.7
		S260.3,332.8,260.3,332.8z M217.5,378.4c0,0,0.8-0.9,0.8,0C218.3,379.3,218.2,378.9,217.5,378.4z M221.2,379
		c-2.3,1.6-0.7-1.7-0.7-1.7h1.5C222,377.3,223.8,377.2,221.2,379z"/>
	<path class="st0" d="M245.9,366.7l0.1-0.1C246,366.6,245.9,366.6,245.9,366.7L245.9,366.7z"/>
	<path class="st0" d="M251,362.1L251,362.1c-0.1,0-0.1,0.1-0.2,0.1L251,362.1z"/>
	<path class="st0" d="M253.1,360.2c0,0,0.2-0.2,0.5-0.5C253.4,359.8,253.3,360,253.1,360.2L253.1,360.2z"/>
	<path class="st0" d="M255.1,358.3C255.1,358.3,255.1,358.3,255.1,358.3C255.1,358.2,255.1,358.2,255.1,358.3z"/>
	<path class="st0" d="M254.9,358.5c0.1-0.1,0.1-0.1,0.2-0.2c0,0,0,0,0,0C255,358.4,254.9,358.4,254.9,358.5z"/>
</g>
<g>
	<path class="st0" d="M268.3,367.5c1.3,2,6.7,7.9,13.7,15.1c-1.5-2.2-8-21.5-8-21.5C271.9,363.1,269.9,365,268.3,367.5z"/>
	<path class="st0" d="M324.5,399.1l8.5,0.8c-1.5-1-7.2-0.2-12.3-1.3c-2-0.6-4.6-2.3-7.5-4.6l0.1,0.1v7c0,0-1.1-0.5-1.8-3.4
		c-0.7-2.9,0.2-2.4,0-3.2c-0.2-0.9-1.8-3.5-1.8-3.5l0.1,0.1c-11.5-10.1-25.9-26.9-27-32.1c-1.2-1.7-4.2-2.1-6.3,0
		c-0.8,0.8-1.6,1.5-2.3,2.2c0,0,1.5,1.3,3.6,3.2c2.1,1.9,5.6,18.7,4.6,18.5c13.5,13.7,32.8,31.6,40.8,33.7c4.3,2.2,10,0,10,0v-3.9
		l-9.8-11.1L324.5,399.1z M282.4,371.5c0.6-2.5-2.7-7-2.7-7l4,3.5C283.6,368,281.8,374,282.4,371.5z"/>
	<path class="st0" d="M282.2,382.8L282.2,382.8c-0.1-0.1-0.1-0.1-0.2-0.2C282.1,382.7,282.1,382.8,282.2,382.8z"/>
	<polygon class="st0" points="274,361 274,361 274,361 	"/>
	<path class="st0" d="M309.6,391c1.2,1.1,2.4,2,3.5,2.9L309.6,391z"/>
</g>
<g>
	<path class="st0" d="M274.8,394.4l4.1,4.3C277.7,397.2,276.3,395.8,274.8,394.4z"/>
	<path class="st0" d="M238.8,425L238.8,425l9,7.3l-1.7,3.7c4.6-4,9.4-8.5,13.9-13l-10.8-8.1C245.8,418.5,242.2,422,238.8,425z"/>
	<path class="st0" d="M242.3,439.2c1.3-1.1,2.5-2.1,3.8-3.3l-3.1-3.4L242.3,439.2z"/>
	<path class="st0" d="M233.4,429.2L233.4,429.2c-1.9,1.3-3.7,2.3-5.1,2.8c-5.1,1.1-10.8,0.3-12.3,1.3V450c0,0,5.7,2.2,10,0
		c2.4-0.6,5.7-2.6,9.6-5.5C235.6,444.5,230.6,431.4,233.4,429.2z M222.6,445.9l-2.7-9.1l2-2.1c0,0-2,2.1,0.8,5.1
		S222.6,445.9,222.6,445.9z"/>
	<path class="st0" d="M263.6,419.5l-3.4,3.3C261.4,421.7,262.5,420.6,263.6,419.5z"/>
	<path class="st0" d="M242.2,439.3l-6.6,5.2C237.7,443,239.9,441.2,242.2,439.3z"/>
	<path class="st0" d="M261.5,400.7l3.5,2.3l-1.4-5.3l10.4,11c3.4-3.7,5.8-6.5,6.7-7.7c-0.5-0.8-1.1-1.6-1.7-2.3l-0.8,3.2
		c0,0,0.1,1-2.7,1.2l-0.7-8.7c-0.7-0.7-1.4-1.3-2.2-2c-2.2-2.1-5.2-1.7-6.3,0c-0.6,3.1-5.9,10.2-12.5,17.6l0,0l6.3,2.7l3.5,6.8
		c2.7-2.7,5.2-5.2,7.4-7.6l-8.7-8.8L261.5,400.7z"/>
	<path class="st0" d="M271.3,411.7c0.9-1,1.9-2,2.7-2.9L271.3,411.7z"/>
	<polygon class="st0" points="279,398.7 279,398.7 279,398.7 	"/>
	<polygon class="st0" points="274.8,394.4 274.8,394.4 274.8,394.4 	"/>
	<path class="st0" d="M271.1,411.9l0.2-0.2C271.2,411.7,271.1,411.8,271.1,411.9L271.1,411.9z"/>
	<path class="st0" d="M274,408.7L274,408.7C274,408.8,274,408.8,274,408.7L274,408.7z"/>
	<path class="st0" d="M249.3,414.8L249.3,414.8c1.5-1.6,3.1-3.3,4.5-4.9L249.3,414.8z"/>
	<path class="st0" d="M263.7,419.4L263.7,419.4C263.7,419.5,263.6,419.5,263.7,419.4L263.7,419.4z"/>
	<path class="st0" d="M260.1,423l0.1-0.1C260.2,422.9,260.2,422.9,260.1,423L260.1,423z"/>
	<polygon class="st0" points="246.2,435.9 246.2,435.9 246.2,435.9 	"/>
	<path class="st0" d="M233.5,429.1c1.6-1.2,3.4-2.6,5.3-4.2L233.5,429.1z"/>
	<path class="st0" d="M242.3,439.2L242.3,439.2c0,0-0.1,0.1-0.1,0.1L242.3,439.2z"/>
	<path class="st0" d="M235.6,444.5L235.6,444.5C235.6,444.5,235.6,444.5,235.6,444.5C235.6,444.5,235.6,444.5,235.6,444.5z"/>
</g>
<g>
	<path class="st0" d="M293.9,444.5L293.9,444.5c-3.1-3.5-5.8-6.9-7.8-9.8l0,0c0,0-6.5,8.4-5.5,3.3l2-9.6c-1.2-1.7-4.2-2.1-6.3,0
		c-3.1,2.9-5.8,5.3-8,8.7c1.8,2.8,11.9,13.7,23.2,24.6c0-0.2,0.1-0.4,0.1-0.7C289.8,455,293.9,444.5,293.9,444.5z"/>
	<path class="st0" d="M313.7,480.8l-4.8-3.7C310.6,478.4,312.2,479.7,313.7,480.8z"/>
	<path class="st0" d="M302.3,466.3c0,0,3.4-9.4,2.4-10.4c0,0,0,0,0,0c-2.5-2.4-4.9-4.9-7.3-7.5l0,0c0,0-4.9,8.8-5.8,12.4
		c0.2,0.5,0.4,1,0.6,1.4c3.8,3.6,7.7,7.2,11.5,10.5l-6.4-5.7L302.3,466.3z"/>
	<path class="st0" d="M333,469.4c-1.3-0.8-5.4-0.4-9.8-0.9l-0.9,2.1c0,0-1.6,2.5-2.8,2.3c-1.2-0.2,1.1-4.8,1.1-4.8
		c-3-1-7.7-4.5-12.7-9l-4.1,13.8c1.7,1.4,3.3,2.8,4.9,4.1l3.3-2c-0.4,1.7,1.7,5.9,1.7,5.9c3.8,2.7,7,4.6,9.3,5.2c4.3,2.2,10,0,10,0
		v-5.2c0,0,0-1.7-2.4-1.5c-2.4,0.2-2.4,0.2-2.4,0.2l4.9-4.5V469.4z M323.5,482.3c-0.1,0.4-0.2,0.7-0.5,0.8
		C322.2,483.4,322.8,483,323.5,482.3c0.2-1.5-0.9-4.6-1.1-5.3c0-0.1-0.1-0.1-0.1-0.1s0,0.1,0.1,0.1c0.2,0.4,0.8,1.9,1.9,3
		C325,480.7,324.2,481.6,323.5,482.3z"/>
	<path class="st0" d="M282.7,428.4c0.3,1.4,1.5,3.6,3.4,6.4L282.7,428.4z"/>
	<path class="st0" d="M293.9,444.6c1.1,1.3,2.3,2.6,3.5,3.9L293.9,444.6z"/>
	<path class="st0" d="M292.3,462.3C292.3,462.3,292.3,462.3,292.3,462.3c-0.3-0.2-0.5-0.5-0.8-0.7
		C291.5,462.2,291.7,462.6,292.3,462.3z"/>
	<path class="st0" d="M308,459c0,0-4.3-4-3.3-3.1C305.8,457,306.9,458,308,459L308,459z"/>
	<path class="st0" d="M303.9,472.8L303.9,472.8C303.8,472.8,303.8,472.8,303.9,472.8L303.9,472.8z"/>
	<path class="st0" d="M323.2,468.4l-2.6-0.4C321.5,468.2,322.4,468.3,323.2,468.4L323.2,468.4z"/>
	<path class="st0" d="M313.7,480.8L313.7,480.8C313.7,480.8,313.7,480.8,313.7,480.8L313.7,480.8z"/>
	<path class="st0" d="M308.7,476.9l0.2,0.1C308.8,477,308.8,477,308.7,476.9L308.7,476.9z"/>
</g>
<g>
	<path class="st0" d="M218.3,520.1C218.3,520.1,218.3,520.1,218.3,520.1c0.5,4,9.5-1.3,9.7-1.4c-0.7,0.3-1.4,0.6-2,0.8
		C223.4,520.8,220.4,520.5,218.3,520.1z"/>
	<path class="st0" d="M231.6,516.8L231.6,516.8C231.6,516.8,231.6,516.8,231.6,516.8L231.6,516.8z"/>
	<path class="st0" d="M239.5,511.1L239.5,511.1C239.4,511.1,239.4,511.1,239.5,511.1L239.5,511.1z"/>
	<path class="st0" d="M272.7,461.8c-2.2-2.1-5.2-1.7-6.3,0c-0.7,3.6-7.8,12.7-15.9,21.3l0,0l13.6,5.4c8.4-8.4,15.1-15.8,16.6-18
		C278.5,467.2,275.7,464.8,272.7,461.8z"/>
	<path class="st0" d="M226.5,505.8l1.8-4.3c-5.1,1.1-10.8,0.3-12.3,1.3v16.7c0,0,0.9,0.4,2.3,0.6
		C217.9,516.1,226.5,505.8,226.5,505.8z"/>
	<path class="st0" d="M239.4,511.1l-7.8,5.7C233.9,515.3,236.6,513.4,239.4,511.1z"/>
	<path class="st0" d="M246.8,487L246.8,487c-7,7.1-14.3,13.2-18.4,14.5h3.1l2.5-3.1l-2.5,7.4l3.5-1.2l4.5,6.4
		c3.1-2.5,6.5-5.4,9.9-8.5C249.3,502.6,249.5,486.9,246.8,487z"/>
	<path class="st0" d="M228,518.7C228,518.7,228,518.7,228,518.7c1-0.5,2.2-1.1,3.5-2l0.1-7L228,518.7z"/>
</g>
<path class="st1" d="M324.9,548.3v2.3c0,0,0.9-1,0.9-1.6C325.8,548.5,324.9,548.3,324.9,548.3z"/>
<g>
	<path class="st0" d="M301.2,534.8c-1.6-0.2-4.9,0.6-5,0.6c1.1,1,2.2,2,3.3,3c-0.5-1.3-0.5-3-0.5-3S302.8,535,301.2,534.8z"/>
	<path class="st0" d="M289.7,509L289.7,509c-3.8-4.8-6.5-9-7-11.1c-1.2-1.7-4.2-2.1-6.3,0c-3.1,2.9-5.8,5.3-8,8.7
		c1.5,2.3,8.7,10.2,17.6,19C289.1,526.4,289.7,509,289.7,509z M278.8,513c-1.8-0.1-1.6-5.8-1.6-5.8s1,0.7,1.1,1.8
		C278.5,510.2,280.7,513.1,278.8,513z"/>
	<path class="st0" d="M293.6,513.7L293.6,513.7c0,0,0.7,1.6-1.5,1.7c-2.2,0.1,0.4,9.9,1,11.7c0.4,1.3-4.6-0.3-6.8-1.1
		c3.2,3.1,6.5,6.4,9.9,9.5l8.5-10C300.9,521.8,297,517.7,293.6,513.7z"/>
	<path class="st0" d="M320.7,537.5c-2.8-0.9-7-4-11.6-8.1c0,0,0,0,0,0s0.1,1-1.2,1.7c-1.3,0.7-4.5,8.9-6.7,8.7
		c8.9,7.9,17.3,14.4,21.9,15.6c4.3,2.2,10,0,10,0v-11.2c0,0-0.8,1.6-0.9,0.3s-1.6,0-1.6,0s-1.4,1.6-1.2-1c0.3-2.6,3.7,0.7,3.7,0.7
		v-5.5C331.5,537.9,325.8,538.7,320.7,537.5z M311.9,544.7c0,0-0.2,0.1-0.4,0.3c0.1,0.6,0,1.1-0.5,1.1c-0.8,0,0-0.7,0.5-1.1
		c-0.1-0.8-0.5-1.7-0.5-1.7h0.8V544.7z M323.6,543.9c-0.1,0,0-0.6,0.2-1.4c0-1.7-0.2-4.4-0.2-4.4h1.8c0,0-1.1,2.7-1.6,4.4
		C323.8,543.3,323.7,543.9,323.6,543.9z"/>
	<path class="st0" d="M285.9,525.6C285.9,525.6,285.9,525.6,285.9,525.6c-1-0.3-0.6,0,0.4,0.4C286.2,525.8,286.1,525.7,285.9,525.6z
		"/>
	<path class="st0" d="M290.5,507.9l-0.8,1.1c1.2,1.5,2.5,3.1,3.9,4.7L290.5,507.9z"/>
	<polygon class="st0" points="296.2,535.5 296.2,535.5 296.2,535.5 	"/>
	<path class="st0" d="M301.1,539.9L301.1,539.9c-0.5-0.5-1.1-1-1.6-1.4C299.8,539.3,300.3,539.9,301.1,539.9z"/>
	<path class="st0" d="M304.7,525.5L304.7,525.5c1.4,1.4,2.9,2.7,4.3,4C309,529.4,306.6,525.6,304.7,525.5z"/>
</g>
<g>
	<path class="st0" d="M223.2,589.8c1-0.1,1.9-0.4,2.8-0.8c1.8-0.5,4.1-1.7,6.8-3.5C232.3,585.7,225.9,589,223.2,589.8L223.2,589.8z"
		/>
	<path class="st0" d="M248.3,573l-3.3,2.9C246.1,575,247.2,574,248.3,573z"/>
	<path class="st0" d="M263.3,549.4c5.9,1.1,5,4.3,5,4.3c6.3-6.5,11.1-11.9,12.3-13.7c-2.2-3.3-4.9-5.7-8-8.7c-2.2-2.1-5.2-1.7-6.3,0
		c-0.3,1.3-1.4,3.3-3,5.8l0,0C263.3,537.1,257.4,548.3,263.3,549.4z M268.4,537.7c0,0-1.2,2.8-1.1,1.6c0.2-1.2-0.9-1.6-0.9-1.6
		H268.4z"/>
	<path class="st0" d="M258.7,543.2C258.7,543.3,258.7,543.3,258.7,543.2C258.7,543.3,258.7,543.3,258.7,543.2L258.7,543.2z"/>
	<path class="st0" d="M229.9,578.5c0,0,0.3-2.7-1.5-2.4c-1.9,0.3-3.8,2.4-3.8,2.4l3.8-7.5c-5.1,1.1-10.8,0.3-12.3,1.3V589
		c0,0,3.4,1.3,6.9,0.9C221.1,589.8,229.9,578.5,229.9,578.5z"/>
	<path class="st0" d="M258.2,543.8c-7.8,9.5-19.3,21.1-26.6,25.6l0,0l2.1,6.7l-0.9,9.4c3.5-2.3,7.6-5.6,12-9.4c0,0,1.9-8.3-1.3-10.9
		c-3.2-2.6,10.6,2.5,10.6,2.5c3.2-3,6.4-6.1,9.4-9.1C263.5,558.6,256.7,547,258.2,543.8z M239.5,570.4c-0.1,1.8-0.5-0.1-0.8-2.2
		c-0.7-0.4-1.7-0.1-1.7-0.1l1.3-3.7c0,0,0.2,1.9,0.5,3.7C239.2,568.5,239.5,569.1,239.5,570.4z"/>
	<path class="st0" d="M263.6,558.5c1.6-1.6,3.1-3.2,4.6-4.7L263.6,558.5z"/>
	<path class="st0" d="M254.1,567.8l-5.3,4.8C250.5,571,252.3,569.4,254.1,567.8z"/>
	<path class="st0" d="M248.6,572.8l0.2-0.2c-0.2,0.1-0.3,0.3-0.5,0.4L248.6,572.8z"/>
	<path class="st0" d="M254.1,567.7L254.1,567.7C254.1,567.7,254.1,567.7,254.1,567.7L254.1,567.7z"/>
	<path class="st0" d="M244.8,576.1l0.2-0.1C244.9,576,244.9,576,244.8,576.1L244.8,576.1z"/>
	<path class="st0" d="M232.9,585.5L232.9,585.5C232.8,585.5,232.8,585.5,232.9,585.5C232.8,585.5,232.9,585.5,232.9,585.5z"/>
	<path class="st0" d="M223.2,589.8c-0.1,0-0.2,0-0.3,0C223,589.9,223.1,589.9,223.2,589.8z"/>
	<path class="st0" d="M228.3,571c1-0.3,2.1-0.9,3.3-1.6L228.3,571z"/>
	<path class="st0" d="M263.5,558.6l0.1-0.1C263.6,558.5,263.6,558.5,263.5,558.6L263.5,558.6z"/>
	<path class="st0" d="M268.3,553.7L268.3,553.7c0,0-0.1,0.1-0.1,0.1L268.3,553.7z"/>
	<path class="st0" d="M258.7,543.2c1.8-2.2,3.4-4.3,4.6-6.1L258.7,543.2z"/>
	<path class="st0" d="M258.2,543.8c0.1-0.2,0.3-0.3,0.4-0.5C258.5,543.4,258.4,543.6,258.2,543.8z"/>
</g>
<g>
	<path class="st0" d="M287.2,600.8l-6.9-7C282.4,596.1,284.8,598.4,287.2,600.8z"/>
	<path class="st0" d="M333,612.9c-1.5-1-7.2-0.2-12.3-1.3c-5.4-1.7-15.9-11.4-24.5-20.9l0,0c0,0,2.5,2.7-2.5,2.7
		c-4.9,0-6.3,7.6-6.4,7.7c3.2,3.1,6.5,6.3,9.8,9.4c-1.1-3.6,1.8-11.9,1.8-11.9s4.6,14,0,13.5c3.5,3.2,6.9,6.1,10.1,8.7
		c-0.1-0.1-3-5.6,0-6.1c3-0.5,0,6.1,0,6.1c5.7,4.6,10.8,8,14,8.9c4.3,2.2,10,0,10,0v-5.3l-3.7-3.5l3.7-1.3V612.9z M311.9,617.6
		c4.1,0.3,3.7-3.1,3.7-3.1l1.3,4.9C316.9,619.4,307.8,617.3,311.9,617.6z M323.5,620.7c-0.9,3.1-2.3-0.5-3.1-3.7
		C320.4,616.9,324.4,617.6,323.5,620.7z"/>
	<path class="st0" d="M289.5,589.9c-6.2-0.2-2.4-10.3-2.4-10.3l0.1,0.1c-2.5-3.4-4.2-6.2-4.5-7.9c-1.2-1.7-4.2-2.1-6.3,0
		c-3.1,2.9-5.8,5.3-8,8.7c1.2,1.8,5.8,7,12,13.3C280.3,593.8,295.7,590.1,289.5,589.9z"/>
	<path class="st0" d="M290,583.3c0-0.1-0.1-0.1-0.1-0.2L290,583.3L290,583.3z"/>
	<path class="st0" d="M287.2,579.7c0.8,1.1,1.7,2.2,2.6,3.4L287.2,579.7z"/>
	<path class="st0" d="M280.3,593.8L280.3,593.8C280.3,593.9,280.3,593.9,280.3,593.8L280.3,593.8z"/>
	<path class="st0" d="M287.4,601L287.4,601c0-0.1-0.1-0.1-0.1-0.1L287.4,601z"/>
	<path class="st0" d="M290,583.3c1.9,2.3,4,4.8,6.2,7.3L290,583.3z"/>
	<path class="st0" d="M298.9,611.9C298.9,611.9,298.9,611.9,298.9,611.9c-0.6-0.5-1.2-1.1-1.8-1.6
		C297.4,611.2,298,611.9,298.9,611.9z"/>
	<polygon class="st0" points="309,620.7 309,620.7 309,620.7 	"/>
</g>
<g>
	<path class="st0" d="M238.1,655.6l-6.8,4.8C233.4,659.2,235.7,657.5,238.1,655.6z"/>
	<path class="st0" d="M228.3,645c0,0,0.9,3.5,2.1,3.4c1.2-0.1,4.4-0.5,6.5-0.8s-1.5,5.2-1.5,5.2l2.7,2.8c4.9-3.8,10.5-8.7,15.9-13.8
		c0.1-6.4-3.7-14.9-3.7-14.9C242.3,635.4,233.2,643.4,228.3,645z"/>
	<path class="st0" d="M222.6,656.2c-2.6-0.4,8.5-3.2,5.6-5.1c-3-1.9,0.1-6.1,0.1-6.1c-5.1,1.1-10.8,0.3-12.3,1.3V663
		c0,0,5.7,2.2,10,0c1.4-0.4,3.2-1.3,5.3-2.5c-0.1,0-4,0-5.5,0C224.2,660.5,225.2,656.6,222.6,656.2z"/>
	<path class="st0" d="M254.1,627.3c1.8-1,11.5,3.2,11.5,3.2c7.7-7.7,13.7-14.4,15.1-16.5c-2.2-3.3-4.9-5.7-8-8.7
		c-2.2-2.1-5.2-1.7-6.3,0c-0.8,3.6-7.8,12.8-16,21.4C250.4,626.8,252.3,628.3,254.1,627.3z M260.9,614.5l4.8,6.2
		c0,0,1.3,5.7-2.4,1.1C259.5,617.2,260.9,614.5,260.9,614.5z"/>
	<polygon class="st0" points="250.4,626.8 250.4,626.8 250.4,626.8 	"/>
	<path class="st0" d="M254.1,641.7L254.1,641.7c3-2.1,5.6-4.9,5.6-4.9l5.9-6.4l0,0C262,634.1,258.1,638,254.1,641.7z"/>
	<path class="st0" d="M231.3,660.5L231.3,660.5C231.3,660.5,231.3,660.5,231.3,660.5C231.3,660.5,231.3,660.5,231.3,660.5z"/>
	<path class="st0" d="M238.2,655.5L238.2,655.5c0,0-0.1,0-0.1,0.1L238.2,655.5z"/>
</g>
<g>
	<path class="st0" d="M268.2,697.3l-5.1,5.2C264.9,700.7,266.6,699,268.2,697.3z"/>
	<path class="st0" d="M219.6,733.3l1.9-4.9c0,0,14-6.7,8.9-6.7s-4.6-6.8-4.6-6.8l0,0c-4.3,0.5-8.6,0.1-9.8,0.9v16.7
		c0,0,3.4,1.3,6.9,0.9C221.8,732.3,219.6,733.3,219.6,733.3z"/>
	<path class="st0" d="M255.7,690.3L255.7,690.3c-9,10.5-21.3,22.2-27.4,24.2l6.3,5.1l5.4-7.8l-1.8,13.2c2.8-2.2,5.7-4.7,8.8-7.4
		c0,0,0.4-0.4,1.2-1.1c0,0,0.1-0.1,0.1-0.1c5.7-5,2-13,2-13s5.4,4.3,6.8,4.8c2-1.9,4-3.8,5.8-5.7c0,0-0.1,0-5.1-1
		C252.9,700.6,255.7,690.3,255.7,690.3z"/>
	<path class="st0" d="M276.1,680.4l1,7.5c1.8-2,3-3.5,3.6-4.3c-2.2-3.3-4.9-5.7-8-8.7c-2.2-2.1-5.2-1.7-6.3,0
		c-0.5,2.3-3.5,6.9-7.8,12.1c1.2,0.9,3.9,3.2,2.1,3.4c-2.3,0.3-0.4,7.8,2.6,7.8c3,0,5.1-0.9,5.1-0.9c1.6-1.6,3.1-3.2,4.4-4.6
		C271.8,693.6,276.1,680.4,276.1,680.4z M266.9,686.6c-1,1.1,1.4-6.2,1.4-6.2S271,682.3,266.9,686.6z"/>
	<path class="st0" d="M273,692.3c1.5-1.6,2.8-3.1,4-4.3C276.5,688.6,274.1,691.1,273,692.3z"/>
	<path class="st0" d="M222.9,733.4c0,0,0.1,0,0.1,0.1c5.5-0.3,15.2-8.4,15.2-8.4l0,0c-5,3.9-9.4,6.7-12.2,7.5
		C225,733,224,733.3,222.9,733.4z"/>
	<path class="st0" d="M225.8,714.9c0.8-0.1,1.7-0.2,2.5-0.4L225.8,714.9z"/>
	<path class="st0" d="M248.3,716.5C248.3,716.5,248.3,716.5,248.3,716.5c-0.5,0.4-0.9,0.8-1.3,1.2c-0.1,0.2,10.3-8.7,10.2-9.4
		c0,0,0,0,0,0C254.3,711.1,251.3,713.8,248.3,716.5C248.3,716.5,248.3,716.5,248.3,716.5z"/>
	<path class="st0" d="M263.1,702.6L263.1,702.6C263.1,702.5,263.1,702.5,263.1,702.6L263.1,702.6z"/>
	<path class="st0" d="M258,686.6l-2.3,3.8c1-1.1,1.9-2.3,2.8-3.4C258.2,686.7,258,686.6,258,686.6z"/>
	<path class="st0" d="M268.3,697.2L268.3,697.2c0,0-0.1,0.1-0.1,0.1L268.3,697.2z"/>
	<path class="st0" d="M277.1,687.8L277.1,687.8c0,0-0.1,0.1-0.1,0.1C277.1,687.9,277.1,687.8,277.1,687.8z"/>
	<path class="st0" d="M272.7,692.6c0.1-0.1,0.2-0.2,0.3-0.3C272.9,692.4,272.8,692.5,272.7,692.6
		C272.7,692.6,272.7,692.6,272.7,692.6z"/>
</g>
<path class="st0" d="M320.7,750.5c-9.8-3.2-36.5-32.5-38-39.7c-1.2-1.7-4.2-2.1-6.3,0c-3.1,2.9-5.8,5.3-8,8.7
	c3.8,5.8,42.5,45.8,54.7,49c4.3,2.2,10,0,10,0v-16.7C331.5,750.9,325.8,751.7,320.7,750.5z M282,721.2c-4.6,0-3-5.1-3-5.1l3,1.6
	C282,717.8,286.5,721.2,282,721.2z"/>
<g>
	<path class="st0" d="M281.4,664.4l-5-5.2C277.9,660.9,279.6,662.6,281.4,664.4z"/>
	<path class="st0" d="M278.7,657c3.6-0.9,7-1.1,7-1.1l2.3-5.5l0,0c-3-3.9-5-7.2-5.4-9.1c-1.2-1.7-4.2-2.1-6.3,0
		c-3.1,2.9-5.8,5.3-8,8.7c0.9,1.4,3.9,4.8,8,9.1C276.2,659,275.3,657.8,278.7,657z"/>
	<path class="st0" d="M333,688.1v-5.8c-1.5-1-7.2-0.2-12.3-1.3c-6.3-2-19.6-14.9-28.7-25.7l0,0l-10.6,9.1
		c7.4,7.6,16.9,16.7,25.2,23.7l1.1-7.8c0,0-0.6,4.5,1.4,6.1c2,1.6-2.4,1.6-2.5,1.6c6.8,5.7,12.8,9.9,16.4,10.9c4.3,2.2,10,0,10,0
		v-5.3c0,0-1.8-0.2-5.9-2.3C323.1,689.2,333,688.1,333,688.1z M298.9,680.4c0,0,0.8-7.3,1.8-8.1s0.9,4,0.9,4L298.9,680.4z
		 M320.4,693.7c-1.5,0-1.5-2-1.1-3.8c0.4-1.7,1.1-3.3,1.1-3.3S323.4,693.8,320.4,693.7z"/>
	<path class="st0" d="M288.1,650.4c1.2,1.6,2.5,3.2,3.9,4.9L288.1,650.4z"/>
	<path class="st0" d="M276.3,659.2L276.3,659.2C276.4,659.2,276.3,659.2,276.3,659.2C276.3,659.2,276.3,659.2,276.3,659.2z"/>
	<path class="st0" d="M281.4,664.5L281.4,664.5C281.4,664.5,281.4,664.4,281.4,664.5L281.4,664.5z"/>
	<polygon class="st0" points="306.5,688.1 306.6,688.1 306.5,688.1 	"/>
</g>
<path class="st0" d="M320.7,820c-9.8-3.2-36.5-32.5-38-39.7c-1.2-1.7-4.2-2.1-6.3,0c-3.1,2.9-5.8,5.3-8,8.7
	c3.8,5.8,42.5,45.8,54.7,49c4.3,2.2,10,0,10,0v-16.7C331.5,820.4,325.8,821.2,320.7,820z M281.4,789.5c-4.1,0,2.6-6,2.6-6
	S285.5,789.5,281.4,789.5z"/>
<g>
	<path class="st0" d="M245.7,772.9c0.9-3,3-5.4,3.4-5.9c-7.7,8.1-16.2,15.5-20.8,17l3.3-0.6v4.2c0,0,1.4-2.7,4.4,1.9
		c2.7,4.1,2,5.1,1.9,5.3c3.3-2.5,6.8-5.5,10.4-8.8C248.3,786,244.7,776.3,245.7,772.9z"/>
	<path class="st0" d="M225.8,799.4c-1.4,0-0.3-0.6,1.7-1.3c1.9-3.7,0.8-14.1,0.8-14.1c-5.1,1.1-10.8,0.3-12.3,1.3V802
		c0,0,5.7,2.2,10,0c2.8-0.7,7-3.4,11.9-7.2c-0.2,0-6.8,1.9-10.4,3.3C227.1,798.9,226.5,799.4,225.8,799.4z"/>
	<path class="st0" d="M258.7,776.3l-10.4,9.7C251.8,782.9,255.3,779.6,258.7,776.3z"/>
	<path class="st0" d="M280.7,753c-2.2-3.3-4.9-5.7-8-8.7c-2.2-2.1-5.2-1.7-6.3,0l2.8,5.2c0,0-0.8,0.7-1.6,1.6c0.1,2-0.1,3.7-1.3,3.7
		c-1.8,0-0.2-2.1,1.3-3.7c-0.2-3-1.3-6.8-1.3-6.8c-0.8,3.8-8.5,13.6-17.1,22.6l4.7-3c0,0-3.2,8,1,9.9c4.1,1.9,3.8,2.4,3.8,2.4
		C269.5,765.9,278.9,755.7,280.7,753z M271.7,755.8c0.4-1.6-1-3.9-1-3.9l3,2.6C273.6,754.4,272.6,755.1,271.7,755.8
		c-0.1,0.5-0.4,0.9-1,1.2C269.3,757.6,270.5,756.7,271.7,755.8z"/>
	<path class="st0" d="M249.2,766.9c0,0,0,0-0.1,0.1C249.2,767,249.2,767,249.2,766.9L249.2,766.9z"/>
	<path class="st0" d="M248.3,786L248.3,786C248.4,786,248.3,786,248.3,786L248.3,786z"/>
	<path class="st0" d="M258.7,776.3L258.7,776.3C258.7,776.3,258.7,776.3,258.7,776.3L258.7,776.3z"/>
	<path class="st0" d="M237.9,794.8C237.9,794.8,237.9,794.8,237.9,794.8C237.9,794.8,237.9,794.8,237.9,794.8
		C237.9,794.8,237.9,794.8,237.9,794.8z"/>
</g>
<path class="st0" d="M535.7-24.7c1.2-1.7,4.2-2.1,6.3,0c3.1,2.9,5.8,5.3,8,8.7c-3.8,5.8-42.5,45.8-54.7,49c-4.3,2.2-10,0-10,0V16.3
	c1.5-1,7.2-0.2,12.3-1.3C507.5,11.8,534.2-17.5,535.7-24.7z"/>
<path class="st0" d="M552,11.4c-1.2-1.7-4.2-2.1-6.3,0c-3.1,2.9-5.8,5.3-8,8.7c3.8,5.8,42.5,45.8,54.7,49c4.3,2.2,10,0,10,0V52.4
	c-1.5-1-7.2-0.2-12.3-1.3C580.2,47.9,553.5,18.5,552,11.4z"/>
<path class="st0" d="M535.7,114.3c1.2-1.7,4.2-2.1,6.3,0c3.1,2.9,5.8,5.3,8,8.7c-3.8,5.8-42.5,45.8-54.7,49c-4.3,2.2-10,0-10,0
	v-16.7c1.5-1,7.2-0.2,12.3-1.3C507.5,150.8,534.2,121.5,535.7,114.3z"/>
<path class="st0" d="M552,150.4c-1.2-1.7-4.2-2.1-6.3,0c-3.1,2.9-5.8,5.3-8,8.7c3.8,5.8,42.5,45.8,54.7,49c4.3,2.2,10,0,10,0v-16.7
	c-1.5-1-7.2-0.2-12.3-1.3C580.2,186.9,553.5,157.5,552,150.4z"/>
<path class="st0" d="M535.7,44.8c1.2-1.7,4.2-2.1,6.3,0c3.1,2.9,5.8,5.3,8,8.7c-3.8,5.8-42.5,45.8-54.7,49c-4.3,2.2-10,0-10,0V85.8
	c1.5-1,7.2-0.2,12.3-1.3C507.5,81.3,534.2,52,535.7,44.8z"/>
<path class="st0" d="M552,80.9c-1.2-1.7-4.2-2.1-6.3,0c-3.1,2.9-5.8,5.3-8,8.7c3.8,5.8,42.5,45.8,54.7,49c4.3,2.2,10,0,10,0v-16.7
	c-1.5-1-7.2-0.2-12.3-1.3C580.2,117.4,553.5,88,552,80.9z"/>
<path class="st0" d="M535.7,183.8c1.2-1.7,4.2-2.1,6.3,0c3.1,2.9,5.8,5.3,8,8.7c-3.8,5.8-42.5,45.8-54.7,49c-4.3,2.2-10,0-10,0
	v-16.7c1.5-1,7.2-0.2,12.3-1.3C507.5,220.3,534.2,191,535.7,183.8z"/>
<path class="st0" d="M552,219.9c-1.2-1.7-4.2-2.1-6.3,0c-3.1,2.9-5.8,5.3-8,8.7c3.8,5.8,42.5,45.8,54.7,49c4.3,2.2,10,0,10,0v-16.7
	c-1.5-1-7.2-0.2-12.3-1.3C580.2,256.4,553.5,227,552,219.9z"/>
<g>
	<path class="st0" d="M538.4,275l-0.5,0.6C538.1,275.4,538.2,275.2,538.4,275z"/>
	<path class="st0" d="M545.8,267.1c2.1-2.4,3.7-4.2,4.3-5.1c-2.2-3.3-4.9-5.7-8-8.7c-2.2-2.1-5.2-1.7-6.3,0
		c-1.5,7.2-28.2,36.5-38,39.7c-5.1,1.1-10.8,0.3-12.3,1.3v3.8l0.9,0.4l-0.9,0.5v12c0,0,5.7,2.2,10,0c8.3-2.2,28.8-21.4,42.3-35.3
		l-3.8-4.5l4.9,3.3c1.1-1.2,2.2-2.3,3.2-3.3l-2.3-8.2L545.8,267.1z M496.1,303c-0.1-0.6,1-0.6,1,0S496.2,303.6,496.1,303z
		 M525.3,272.8l1.2,0.4l1.2,1.4L525.3,272.8z"/>
	<path class="st0" d="M545.7,267.2l-3.7,4C543.4,269.8,544.6,268.4,545.7,267.2z"/>
	<path class="st0" d="M545.8,267.1c0,0-0.1,0.1-0.1,0.1L545.8,267.1L545.8,267.1z"/>
	<path class="st0" d="M537.7,275.7l0.2-0.2C537.8,275.6,537.8,275.7,537.7,275.7L537.7,275.7z"/>
	<path class="st0" d="M538.8,274.6L538.8,274.6c-0.1,0.1-0.3,0.3-0.4,0.4L538.8,274.6z"/>
</g>
<g>
	<path class="st0" d="M542.5,300.6l1.1-4.8l-0.6-3.9c-2,1.9-3.8,3.8-5.3,6.1c0.6,0.9,2,2.5,3.9,4.7l1-0.6L542.5,300.6z"/>
	<path class="st0" d="M602.4,330.4c-1.5-1-7.2-0.2-12.3-1.3c-9.8-3.2-36.5-32.5-38-39.7c-1.2-1.7-4.2-2.1-6.3,0
		c-0.9,0.9-1.8,1.7-2.7,2.6l1.5,4.3l-1,2.5l1.4-0.4l-1.2,1l-0.9,3.6l-1.2-0.2c11,12.3,40.4,41.6,50.7,44.3c1.5,0.7,3.1,1,4.6,1
		c0,0-3.4-6.1-6-7.4c-2.6-1.3-1-8.7-1-8.7s1.1,2.4,1.4,4.4c0.3,2,2.8,0.6,5,1.2c2.2,0.6,0.6,10.4,0.6,10.4c2.9,0,5.4-1,5.4-1V330.4z
		 M584.9,333.6c0.3-0.4,1.2,0,1.2,0C585.7,335.2,584.6,334,584.9,333.6z"/>
	<polygon class="st0" points="543,291.9 543,291.9 543,291.9 	"/>
	<polygon class="st0" points="541.6,302.8 541.6,302.8 541.6,302.8 	"/>
	<polygon class="st0" points="597,348 597,348 597,348 	"/>
</g>
<g>
	<path class="st0" d="M520.2,362.2l-4.8,4.3C517,365.1,518.6,363.7,520.2,362.2z"/>
	<path class="st0" d="M524.3,358.5c-0.3,0.3-0.9,0.8-1.3,1.2C523.4,359.3,523.8,358.9,524.3,358.5z"/>
	<path class="st0" d="M517.7,352.8c-2.2-0.9,3.9,1.3,4.8,2.7c0.9,1.4,1.5,3.3,2,2.9c12.2-11.5,23.6-23.8,25.6-26.8
		c-2.2-3.3-4.9-5.7-8-8.7c-2.2-2.1-5.2-1.7-6.3,0c-1.5,7.2-28.2,36.5-38,39.7c-5.1,1.1-10.8,0.3-12.3,1.3v16.7c0,0,5.7,2.2,10,0
		c4.3-1.1,11.8-6.7,19.9-13.8l-7.1-11.2c0,0,5,0.2,4.2,0.8c-0.8,0.6,1.9,4,1.9,4l6.1,1.9c0.7-0.6,1.4-1.3,2.1-1.9
		C522.5,360.1,519.9,353.7,517.7,352.8z M529.6,332.8l0.7,1.6l3,4l5.9,1.5c0,0-3.7,5.3-3.7,3.9s0.9-1.4-3-2.7
		S529.6,332.8,529.6,332.8z M486.9,378.4c0,0,0.8-0.9,0.8,0C487.7,379.3,487.5,378.9,486.9,378.4z M490.5,379
		c-2.3,1.6-0.7-1.7-0.7-1.7h1.5C491.4,377.3,493.2,377.2,490.5,379z"/>
	<path class="st0" d="M515.3,366.7l0.1-0.1C515.4,366.6,515.3,366.6,515.3,366.7L515.3,366.7z"/>
	<path class="st0" d="M520.4,362.1L520.4,362.1c-0.1,0-0.1,0.1-0.2,0.1L520.4,362.1z"/>
	<path class="st0" d="M522.5,360.2c0,0,0.2-0.2,0.5-0.5C522.8,359.8,522.6,360,522.5,360.2L522.5,360.2z"/>
	<path class="st0" d="M524.4,358.3C524.4,358.3,524.4,358.3,524.4,358.3C524.5,358.2,524.5,358.2,524.4,358.3z"/>
	<path class="st0" d="M524.3,358.5c0.1-0.1,0.1-0.1,0.2-0.2c0,0,0,0,0,0C524.4,358.4,524.3,358.4,524.3,358.5z"/>
</g>
<g>
	<path class="st0" d="M537.7,367.5c1.3,2,6.7,7.9,13.7,15.1c-1.5-2.2-8-21.5-8-21.5C541.3,363.1,539.3,365,537.7,367.5z"/>
	<path class="st0" d="M593.9,399.1l8.5,0.8c-1.5-1-7.2-0.2-12.3-1.3c-2-0.6-4.6-2.3-7.5-4.6l0.1,0.1v7c0,0-1.1-0.5-1.8-3.4
		c-0.7-2.9,0.2-2.4,0-3.2c-0.2-0.9-1.8-3.5-1.8-3.5l0.1,0.1c-11.5-10.1-25.9-26.9-27-32.1c-1.2-1.7-4.2-2.1-6.3,0
		c-0.8,0.8-1.6,1.5-2.3,2.2c0,0,1.5,1.3,3.6,3.2c2.1,1.9,5.6,18.7,4.6,18.5c13.5,13.7,32.8,31.6,40.8,33.7c4.3,2.2,10,0,10,0v-3.9
		l-9.8-11.1L593.9,399.1z M551.8,371.5c0.6-2.5-2.7-7-2.7-7l4,3.5C553,368,551.1,374,551.8,371.5z"/>
	<path class="st0" d="M551.6,382.8L551.6,382.8c-0.1-0.1-0.1-0.1-0.2-0.2C551.5,382.7,551.5,382.8,551.6,382.8z"/>
	<polygon class="st0" points="543.4,361 543.4,361 543.4,361 	"/>
	<path class="st0" d="M579,391c1.2,1.1,2.4,2,3.5,2.9L579,391z"/>
</g>
<g>
	<path class="st0" d="M544.2,394.4l4.1,4.3C547.1,397.2,545.7,395.8,544.2,394.4z"/>
	<path class="st0" d="M508.2,425L508.2,425l9,7.3l-1.7,3.7c4.6-4,9.4-8.5,13.9-13l-10.8-8.1C515.2,418.5,511.6,422,508.2,425z"/>
	<path class="st0" d="M511.7,439.2c1.3-1.1,2.5-2.1,3.8-3.3l-3.1-3.4L511.7,439.2z"/>
	<path class="st0" d="M502.8,429.2L502.8,429.2c-1.9,1.3-3.7,2.3-5.1,2.8c-5.1,1.1-10.8,0.3-12.3,1.3V450c0,0,5.7,2.2,10,0
		c2.4-0.6,5.7-2.6,9.6-5.5C504.9,444.5,500,431.4,502.8,429.2z M492,445.9l-2.7-9.1l2-2.1c0,0-2,2.1,0.8,5.1S492,445.9,492,445.9z"
		/>
	<path class="st0" d="M533,419.5l-3.4,3.3C530.8,421.7,531.9,420.6,533,419.5z"/>
	<path class="st0" d="M511.6,439.3l-6.6,5.2C507.1,443,509.3,441.2,511.6,439.3z"/>
	<path class="st0" d="M530.8,400.7l3.5,2.3l-1.4-5.3l10.4,11c3.4-3.7,5.8-6.5,6.7-7.7c-0.5-0.8-1.1-1.6-1.7-2.3l-0.8,3.2
		c0,0,0.1,1-2.7,1.2l-0.7-8.7c-0.7-0.7-1.4-1.3-2.2-2c-2.2-2.1-5.2-1.7-6.3,0c-0.6,3.1-5.9,10.2-12.5,17.6l0,0l6.3,2.7l3.5,6.8
		c2.7-2.7,5.2-5.2,7.4-7.6l-8.7-8.8L530.8,400.7z"/>
	<path class="st0" d="M540.6,411.7c0.9-1,1.9-2,2.7-2.9L540.6,411.7z"/>
	<polygon class="st0" points="548.4,398.7 548.4,398.7 548.4,398.7 	"/>
	<polygon class="st0" points="544.2,394.4 544.2,394.4 544.2,394.4 	"/>
	<path class="st0" d="M540.5,411.9l0.2-0.2C540.6,411.7,540.5,411.8,540.5,411.9L540.5,411.9z"/>
	<path class="st0" d="M543.4,408.7L543.4,408.7C543.4,408.8,543.4,408.8,543.4,408.7L543.4,408.7z"/>
	<path class="st0" d="M518.7,414.8L518.7,414.8c1.5-1.6,3.1-3.3,4.5-4.9L518.7,414.8z"/>
	<path class="st0" d="M533,419.4L533,419.4C533,419.5,533,419.5,533,419.4L533,419.4z"/>
	<path class="st0" d="M529.5,423l0.1-0.1C529.6,422.9,529.5,422.9,529.5,423L529.5,423z"/>
	<polygon class="st0" points="515.6,435.9 515.6,435.9 515.6,435.9 	"/>
	<path class="st0" d="M502.9,429.1c1.6-1.2,3.4-2.6,5.3-4.2L502.9,429.1z"/>
	<path class="st0" d="M511.7,439.2L511.7,439.2c0,0-0.1,0.1-0.1,0.1L511.7,439.2z"/>
	<path class="st0" d="M505,444.5L505,444.5C505,444.5,505,444.5,505,444.5C505,444.5,505,444.5,505,444.5z"/>
</g>
<g>
	<path class="st0" d="M563.3,444.5L563.3,444.5c-3.1-3.5-5.8-6.9-7.8-9.8l0,0c0,0-6.5,8.4-5.5,3.3l2-9.6c-1.2-1.7-4.2-2.1-6.3,0
		c-3.1,2.9-5.8,5.3-8,8.7c1.8,2.8,11.9,13.7,23.2,24.6c0-0.2,0.1-0.4,0.1-0.7C559.1,455,563.3,444.5,563.3,444.5z"/>
	<path class="st0" d="M583.1,480.8l-4.8-3.7C579.9,478.4,581.6,479.7,583.1,480.8z"/>
	<path class="st0" d="M571.7,466.3c0,0,3.4-9.4,2.4-10.4c0,0,0,0,0,0c-2.5-2.4-4.9-4.9-7.3-7.5l0,0c0,0-4.9,8.8-5.8,12.4
		c0.2,0.5,0.4,1,0.6,1.4c3.8,3.6,7.7,7.2,11.5,10.5l-6.4-5.7L571.7,466.3z"/>
	<path class="st0" d="M602.4,469.4c-1.3-0.8-5.4-0.4-9.8-0.9l-0.9,2.1c0,0-1.6,2.5-2.8,2.3c-1.2-0.2,1.1-4.8,1.1-4.8
		c-3-1-7.7-4.5-12.7-9l-4.1,13.8c1.7,1.4,3.3,2.8,4.9,4.1l3.3-2c-0.4,1.7,1.7,5.9,1.7,5.9c3.8,2.7,7,4.6,9.3,5.2c4.3,2.2,10,0,10,0
		v-5.2c0,0,0-1.7-2.4-1.5c-2.4,0.2-2.4,0.2-2.4,0.2l4.9-4.5V469.4z M592.9,482.3c-0.1,0.4-0.2,0.7-0.5,0.8
		C591.6,483.4,592.2,483,592.9,482.3c0.2-1.5-0.9-4.6-1.1-5.3c0-0.1-0.1-0.1-0.1-0.1s0,0.1,0.1,0.1c0.2,0.4,0.8,1.9,1.9,3
		C594.4,480.7,593.6,481.6,592.9,482.3z"/>
	<path class="st0" d="M552,428.4c0.3,1.4,1.5,3.6,3.4,6.4L552,428.4z"/>
	<path class="st0" d="M563.3,444.6c1.1,1.3,2.3,2.6,3.5,3.9L563.3,444.6z"/>
	<path class="st0" d="M561.7,462.3C561.7,462.3,561.7,462.3,561.7,462.3c-0.3-0.2-0.5-0.5-0.8-0.7
		C560.9,462.2,561.1,462.6,561.7,462.3z"/>
	<path class="st0" d="M577.4,459c0,0-4.3-4-3.3-3.1C575.2,457,576.3,458,577.4,459L577.4,459z"/>
	<path class="st0" d="M573.2,472.8L573.2,472.8C573.2,472.8,573.2,472.8,573.2,472.8L573.2,472.8z"/>
	<path class="st0" d="M592.6,468.4L590,468C590.9,468.2,591.8,468.3,592.6,468.4L592.6,468.4z"/>
	<path class="st0" d="M583.1,480.8L583.1,480.8C583.1,480.8,583.1,480.8,583.1,480.8L583.1,480.8z"/>
	<path class="st0" d="M578.1,476.9l0.2,0.1C578.2,477,578.2,477,578.1,476.9L578.1,476.9z"/>
</g>
<g>
	<path class="st0" d="M487.7,520.1C487.7,520.1,487.7,520.1,487.7,520.1c0.5,4,9.5-1.3,9.7-1.4c-0.7,0.3-1.4,0.6-2,0.8
		C492.8,520.8,489.7,520.5,487.7,520.1z"/>
	<path class="st0" d="M501,516.8L501,516.8C501,516.8,501,516.8,501,516.8L501,516.8z"/>
	<path class="st0" d="M508.8,511.1L508.8,511.1C508.8,511.1,508.8,511.1,508.8,511.1L508.8,511.1z"/>
	<path class="st0" d="M542,461.8c-2.2-2.1-5.2-1.7-6.3,0c-0.7,3.6-7.8,12.7-15.9,21.3l0,0l13.6,5.4c8.4-8.4,15.1-15.8,16.6-18
		C547.9,467.2,545.1,464.8,542,461.8z"/>
	<path class="st0" d="M495.9,505.8l1.8-4.3c-5.1,1.1-10.8,0.3-12.3,1.3v16.7c0,0,0.9,0.4,2.3,0.6
		C487.2,516.1,495.9,505.8,495.9,505.8z"/>
	<path class="st0" d="M508.8,511.1l-7.8,5.7C503.3,515.3,505.9,513.4,508.8,511.1z"/>
	<path class="st0" d="M516.2,487L516.2,487c-7,7.1-14.3,13.2-18.4,14.5h3.1l2.5-3.1l-2.5,7.4l3.5-1.2l4.5,6.4
		c3.1-2.5,6.5-5.4,9.9-8.5C518.7,502.6,518.8,486.9,516.2,487z"/>
	<path class="st0" d="M497.4,518.7C497.4,518.7,497.4,518.7,497.4,518.7c1-0.5,2.2-1.1,3.5-2l0.1-7L497.4,518.7z"/>
</g>
<path class="st1" d="M594.3,548.3v2.3c0,0,0.9-1,0.9-1.6C595.2,548.5,594.3,548.3,594.3,548.3z"/>
<g>
	<path class="st0" d="M570.6,534.8c-1.6-0.2-4.9,0.6-5,0.6c1.1,1,2.2,2,3.3,3c-0.5-1.3-0.5-3-0.5-3S572.2,535,570.6,534.8z"/>
	<path class="st0" d="M559,509L559,509c-3.8-4.8-6.5-9-7-11.1c-1.2-1.7-4.2-2.1-6.3,0c-3.1,2.9-5.8,5.3-8,8.7
		c1.5,2.3,8.7,10.2,17.6,19C558.5,526.4,559,509,559,509z M548.2,513c-1.8-0.1-1.6-5.8-1.6-5.8s1,0.7,1.1,1.8
		C547.9,510.2,550.1,513.1,548.2,513z"/>
	<path class="st0" d="M563,513.7L563,513.7c0,0,0.7,1.6-1.5,1.7c-2.2,0.1,0.4,9.9,1,11.7c0.4,1.3-4.6-0.3-6.8-1.1
		c3.2,3.1,6.5,6.4,9.9,9.5l8.5-10C570.3,521.8,566.4,517.7,563,513.7z"/>
	<path class="st0" d="M590,537.5c-2.8-0.9-7-4-11.6-8.1c0,0,0,0,0,0s0.1,1-1.2,1.7c-1.3,0.7-4.5,8.9-6.7,8.7
		c8.9,7.9,17.3,14.4,21.9,15.6c4.3,2.2,10,0,10,0v-11.2c0,0-0.8,1.6-0.9,0.3s-1.6,0-1.6,0s-1.4,1.6-1.2-1c0.3-2.6,3.7,0.7,3.7,0.7
		v-5.5C600.9,537.9,595.2,538.7,590,537.5z M581.3,544.7c0,0-0.2,0.1-0.4,0.3c0.1,0.6,0,1.1-0.5,1.1c-0.8,0,0-0.7,0.5-1.1
		c-0.1-0.8-0.5-1.7-0.5-1.7h0.8V544.7z M593,543.9c-0.1,0,0-0.6,0.2-1.4c0-1.7-0.2-4.4-0.2-4.4h1.8c0,0-1.1,2.7-1.6,4.4
		C593.2,543.3,593.1,543.9,593,543.9z"/>
	<path class="st0" d="M555.3,525.6C555.3,525.6,555.3,525.6,555.3,525.6c-1-0.3-0.6,0,0.4,0.4C555.6,525.8,555.4,525.7,555.3,525.6z
		"/>
	<path class="st0" d="M559.9,507.9L559,509c1.2,1.5,2.5,3.1,3.9,4.7L559.9,507.9z"/>
	<polygon class="st0" points="565.6,535.5 565.6,535.5 565.6,535.5 	"/>
	<path class="st0" d="M570.5,539.9L570.5,539.9c-0.5-0.5-1.1-1-1.6-1.4C569.2,539.3,569.7,539.9,570.5,539.9z"/>
	<path class="st0" d="M574.1,525.5L574.1,525.5c1.4,1.4,2.9,2.7,4.3,4C578.4,529.4,576,525.6,574.1,525.5z"/>
</g>
<g>
	<path class="st0" d="M492.6,589.8c1-0.1,1.9-0.4,2.8-0.8c1.8-0.5,4.1-1.7,6.8-3.5C501.7,585.7,495.3,589,492.6,589.8L492.6,589.8z"
		/>
	<path class="st0" d="M517.7,573l-3.3,2.9C515.5,575,516.6,574,517.7,573z"/>
	<path class="st0" d="M532.7,549.4c5.9,1.1,5,4.3,5,4.3c6.3-6.5,11.1-11.9,12.3-13.7c-2.2-3.3-4.9-5.7-8-8.7c-2.2-2.1-5.2-1.7-6.3,0
		c-0.3,1.3-1.4,3.3-3,5.8l0,0C532.7,537.1,526.8,548.3,532.7,549.4z M537.8,537.7c0,0-1.2,2.8-1.1,1.6c0.2-1.2-0.9-1.6-0.9-1.6
		H537.8z"/>
	<path class="st0" d="M528.1,543.2C528.1,543.3,528.1,543.3,528.1,543.2C528.1,543.3,528.1,543.3,528.1,543.2L528.1,543.2z"/>
	<path class="st0" d="M499.2,578.5c0,0,0.3-2.7-1.5-2.4c-1.9,0.3-3.8,2.4-3.8,2.4l3.8-7.5c-5.1,1.1-10.8,0.3-12.3,1.3V589
		c0,0,3.4,1.3,6.9,0.9C490.5,589.8,499.2,578.5,499.2,578.5z"/>
	<path class="st0" d="M527.6,543.8c-7.8,9.5-19.3,21.1-26.6,25.6l0,0l2.1,6.7l-0.9,9.4c3.5-2.3,7.6-5.6,12-9.4c0,0,1.9-8.3-1.3-10.9
		c-3.2-2.6,10.6,2.5,10.6,2.5c3.2-3,6.4-6.1,9.4-9.1C532.9,558.6,526.1,547,527.6,543.8z M508.8,570.4c-0.1,1.8-0.5-0.1-0.8-2.2
		c-0.7-0.4-1.7-0.1-1.7-0.1l1.3-3.7c0,0,0.2,1.9,0.5,3.7C508.5,568.5,508.9,569.1,508.8,570.4z"/>
	<path class="st0" d="M533,558.5c1.6-1.6,3.1-3.2,4.6-4.7L533,558.5z"/>
	<path class="st0" d="M523.4,567.8l-5.3,4.8C519.9,571,521.7,569.4,523.4,567.8z"/>
	<path class="st0" d="M517.9,572.8l0.2-0.2c-0.2,0.1-0.3,0.3-0.5,0.4L517.9,572.8z"/>
	<path class="st0" d="M523.5,567.7L523.5,567.7C523.5,567.7,523.5,567.7,523.5,567.7L523.5,567.7z"/>
	<path class="st0" d="M514.2,576.1l0.2-0.1C514.3,576,514.3,576,514.2,576.1L514.2,576.1z"/>
	<path class="st0" d="M502.2,585.5L502.2,585.5C502.2,585.5,502.2,585.5,502.2,585.5C502.2,585.5,502.2,585.5,502.2,585.5z"/>
	<path class="st0" d="M492.6,589.8c-0.1,0-0.2,0-0.3,0C492.4,589.9,492.4,589.9,492.6,589.8z"/>
	<path class="st0" d="M497.7,571c1-0.3,2.1-0.9,3.3-1.6L497.7,571z"/>
	<path class="st0" d="M532.9,558.6l0.1-0.1C533,558.5,532.9,558.5,532.9,558.6L532.9,558.6z"/>
	<path class="st0" d="M537.7,553.7L537.7,553.7c0,0-0.1,0.1-0.1,0.1L537.7,553.7z"/>
	<path class="st0" d="M528.1,543.2c1.8-2.2,3.4-4.3,4.6-6.1L528.1,543.2z"/>
	<path class="st0" d="M527.6,543.8c0.1-0.2,0.3-0.3,0.4-0.5C527.9,543.4,527.7,543.6,527.6,543.8z"/>
</g>
<g>
	<path class="st0" d="M556.6,600.8l-6.9-7C551.8,596.1,554.2,598.4,556.6,600.8z"/>
	<path class="st0" d="M602.4,612.9c-1.5-1-7.2-0.2-12.3-1.3c-5.4-1.7-15.9-11.4-24.5-20.9l0,0c0,0,2.5,2.7-2.5,2.7
		c-4.9,0-6.3,7.6-6.4,7.7c3.2,3.1,6.5,6.3,9.8,9.4c-1.1-3.6,1.8-11.9,1.8-11.9s4.6,14,0,13.5c3.5,3.2,6.9,6.1,10.1,8.7
		c-0.1-0.1-3-5.6,0-6.1c3-0.5,0,6.1,0,6.1c5.7,4.6,10.8,8,14,8.9c4.3,2.2,10,0,10,0v-5.3l-3.7-3.5l3.7-1.3V612.9z M581.3,617.6
		c4.1,0.3,3.7-3.1,3.7-3.1l1.3,4.9C586.3,619.4,577.2,617.3,581.3,617.6z M592.9,620.7c-0.9,3.1-2.3-0.5-3.1-3.7
		C589.8,616.9,593.8,617.6,592.9,620.7z"/>
	<path class="st0" d="M558.9,589.9c-6.2-0.2-2.4-10.3-2.4-10.3l0.1,0.1c-2.5-3.4-4.2-6.2-4.5-7.9c-1.2-1.7-4.2-2.1-6.3,0
		c-3.1,2.9-5.8,5.3-8,8.7c1.2,1.8,5.8,7,12,13.3C549.7,593.8,565.1,590.1,558.9,589.9z"/>
	<path class="st0" d="M559.3,583.3c0-0.1-0.1-0.1-0.1-0.2L559.3,583.3L559.3,583.3z"/>
	<path class="st0" d="M556.6,579.7c0.8,1.1,1.7,2.2,2.6,3.4L556.6,579.7z"/>
	<path class="st0" d="M549.7,593.8L549.7,593.8C549.7,593.9,549.7,593.9,549.7,593.8L549.7,593.8z"/>
	<path class="st0" d="M556.7,601L556.7,601c0-0.1-0.1-0.1-0.1-0.1L556.7,601z"/>
	<path class="st0" d="M559.3,583.3c1.9,2.3,4,4.8,6.2,7.3L559.3,583.3z"/>
	<path class="st0" d="M568.3,611.9L568.3,611.9c-0.6-0.5-1.2-1.1-1.8-1.6C566.8,611.2,567.4,611.9,568.3,611.9z"/>
	<polygon class="st0" points="578.4,620.7 578.4,620.7 578.4,620.7 	"/>
</g>
<g>
	<path class="st0" d="M507.5,655.6l-6.8,4.8C502.7,659.2,505,657.5,507.5,655.6z"/>
	<path class="st0" d="M497.7,645c0,0,0.9,3.5,2.1,3.4c1.2-0.1,4.4-0.5,6.5-0.8s-1.5,5.2-1.5,5.2l2.7,2.8c4.9-3.8,10.5-8.7,15.9-13.8
		c0.1-6.4-3.7-14.9-3.7-14.9C511.7,635.4,502.6,643.4,497.7,645z"/>
	<path class="st0" d="M492,656.2c-2.6-0.4,8.5-3.2,5.6-5.1c-3-1.9,0.1-6.1,0.1-6.1c-5.1,1.1-10.8,0.3-12.3,1.3V663c0,0,5.7,2.2,10,0
		c1.4-0.4,3.2-1.3,5.3-2.5c-0.1,0-4,0-5.5,0C493.6,660.5,494.6,656.6,492,656.2z"/>
	<path class="st0" d="M523.5,627.3c1.8-1,11.5,3.2,11.5,3.2c7.7-7.7,13.7-14.4,15.1-16.5c-2.2-3.3-4.9-5.7-8-8.7
		c-2.2-2.1-5.2-1.7-6.3,0c-0.8,3.6-7.8,12.8-16,21.4C519.7,626.8,521.7,628.3,523.5,627.3z M530.2,614.5l4.8,6.2
		c0,0,1.3,5.7-2.4,1.1C528.9,617.2,530.2,614.5,530.2,614.5z"/>
	<polygon class="st0" points="519.7,626.8 519.7,626.8 519.7,626.8 	"/>
	<path class="st0" d="M523.5,641.7L523.5,641.7c3-2.1,5.6-4.9,5.6-4.9l5.9-6.4l0,0C531.4,634.1,527.5,638,523.5,641.7z"/>
	<path class="st0" d="M500.6,660.5L500.6,660.5C500.7,660.5,500.7,660.5,500.6,660.5C500.6,660.5,500.6,660.5,500.6,660.5z"/>
	<path class="st0" d="M507.6,655.5L507.6,655.5c0,0-0.1,0-0.1,0.1L507.6,655.5z"/>
</g>
<g>
	<path class="st0" d="M537.6,697.3l-5.1,5.2C534.3,700.7,536,699,537.6,697.3z"/>
	<path class="st0" d="M489,733.3l1.9-4.9c0,0,14-6.7,8.9-6.7s-4.6-6.8-4.6-6.8l0,0c-4.3,0.5-8.6,0.1-9.8,0.9v16.7
		c0,0,3.4,1.3,6.9,0.9C491.2,732.3,489,733.3,489,733.3z"/>
	<path class="st0" d="M525.1,690.3L525.1,690.3c-9,10.5-21.3,22.2-27.4,24.2l6.3,5.1l5.4-7.8l-1.8,13.2c2.8-2.2,5.7-4.7,8.8-7.4
		c0,0,0.4-0.4,1.2-1.1c0,0,0.1-0.1,0.1-0.1c5.7-5,2-13,2-13s5.4,4.3,6.8,4.8c2-1.9,4-3.8,5.8-5.7c0,0-0.1,0-5.1-1
		C522.3,700.6,525.1,690.3,525.1,690.3z"/>
	<path class="st0" d="M545.5,680.4l1,7.5c1.8-2,3-3.5,3.6-4.3c-2.2-3.3-4.9-5.7-8-8.7c-2.2-2.1-5.2-1.7-6.3,0
		c-0.5,2.3-3.5,6.9-7.8,12.1c1.2,0.9,3.9,3.2,2.1,3.4c-2.3,0.3-0.4,7.8,2.6,7.8c3,0,5.1-0.9,5.1-0.9c1.6-1.6,3.1-3.2,4.4-4.6
		C541.2,693.6,545.5,680.4,545.5,680.4z M536.3,686.6c-1,1.1,1.4-6.2,1.4-6.2S540.3,682.3,536.3,686.6z"/>
	<path class="st0" d="M542.4,692.3c1.5-1.6,2.8-3.1,4-4.3C545.8,688.6,543.5,691.1,542.4,692.3z"/>
	<path class="st0" d="M492.3,733.4c0,0,0.1,0,0.1,0.1c5.5-0.3,15.2-8.4,15.2-8.4l0,0c-5,3.9-9.4,6.7-12.2,7.5
		C494.4,733,493.3,733.3,492.3,733.4z"/>
	<path class="st0" d="M495.2,714.9c0.8-0.1,1.7-0.2,2.5-0.4L495.2,714.9z"/>
	<path class="st0" d="M517.7,716.5C517.7,716.5,517.7,716.5,517.7,716.5c-0.5,0.4-0.9,0.8-1.3,1.2c-0.1,0.2,10.3-8.7,10.2-9.4
		c0,0,0,0,0,0C523.7,711.1,520.7,713.8,517.7,716.5C517.7,716.5,517.7,716.5,517.7,716.5z"/>
	<path class="st0" d="M532.4,702.6L532.4,702.6C532.5,702.5,532.4,702.5,532.4,702.6L532.4,702.6z"/>
	<path class="st0" d="M527.4,686.6l-2.3,3.8c1-1.1,1.9-2.3,2.8-3.4C527.6,686.7,527.4,686.6,527.4,686.6z"/>
	<path class="st0" d="M537.7,697.2L537.7,697.2c0,0-0.1,0.1-0.1,0.1L537.7,697.2z"/>
	<path class="st0" d="M546.5,687.8L546.5,687.8c0,0-0.1,0.1-0.1,0.1C546.4,687.9,546.5,687.8,546.5,687.8z"/>
	<path class="st0" d="M542.1,692.6c0.1-0.1,0.2-0.2,0.3-0.3C542.3,692.4,542.2,692.5,542.1,692.6
		C542.1,692.6,542.1,692.6,542.1,692.6z"/>
</g>
<path class="st0" d="M590,750.5c-9.8-3.2-36.5-32.5-38-39.7c-1.2-1.7-4.2-2.1-6.3,0c-3.1,2.9-5.8,5.3-8,8.7
	c3.8,5.8,42.5,45.8,54.7,49c4.3,2.2,10,0,10,0v-16.7C600.9,750.9,595.2,751.7,590,750.5z M551.4,721.2c-4.6,0-3-5.1-3-5.1l3,1.6
	C551.4,717.8,555.9,721.2,551.4,721.2z"/>
<g>
	<path class="st0" d="M550.7,664.4l-5-5.2C547.3,660.9,549,662.6,550.7,664.4z"/>
	<path class="st0" d="M548.1,657c3.6-0.9,7-1.1,7-1.1l2.3-5.5l0,0c-3-3.9-5-7.2-5.4-9.1c-1.2-1.7-4.2-2.1-6.3,0
		c-3.1,2.9-5.8,5.3-8,8.7c0.9,1.4,3.9,4.8,8,9.1C545.6,659,544.7,657.8,548.1,657z"/>
	<path class="st0" d="M602.4,688.1v-5.8c-1.5-1-7.2-0.2-12.3-1.3c-6.3-2-19.6-14.9-28.7-25.7l0,0l-10.6,9.1
		c7.4,7.6,16.9,16.7,25.2,23.7l1.1-7.8c0,0-0.6,4.5,1.4,6.1c2,1.6-2.4,1.6-2.5,1.6c6.8,5.7,12.8,9.9,16.4,10.9c4.3,2.2,10,0,10,0
		v-5.3c0,0-1.8-0.2-5.9-2.3C592.5,689.2,602.4,688.1,602.4,688.1z M568.3,680.4c0,0,0.8-7.3,1.8-8.1s0.9,4,0.9,4L568.3,680.4z
		 M589.8,693.7c-1.5,0-1.5-2-1.1-3.8c0.4-1.7,1.1-3.3,1.1-3.3S592.7,693.8,589.8,693.7z"/>
	<path class="st0" d="M557.5,650.4c1.2,1.6,2.5,3.2,3.9,4.9L557.5,650.4z"/>
	<path class="st0" d="M545.7,659.2L545.7,659.2C545.7,659.2,545.7,659.2,545.7,659.2C545.7,659.2,545.7,659.2,545.7,659.2z"/>
	<path class="st0" d="M550.8,664.5L550.8,664.5C550.8,664.5,550.7,664.4,550.8,664.5L550.8,664.5z"/>
	<polygon class="st0" points="575.9,688.1 575.9,688.1 575.9,688.1 	"/>
</g>
<path class="st0" d="M590,820c-9.8-3.2-36.5-32.5-38-39.7c-1.2-1.7-4.2-2.1-6.3,0c-3.1,2.9-5.8,5.3-8,8.7c3.8,5.8,42.5,45.8,54.7,49
	c4.3,2.2,10,0,10,0v-16.7C600.9,820.4,595.2,821.2,590,820z M550.8,789.5c-4.1,0,2.6-6,2.6-6S554.9,789.5,550.8,789.5z"/>
<g>
	<path class="st0" d="M515.1,772.9c0.9-3,3-5.4,3.4-5.9c-7.7,8.1-16.2,15.5-20.8,17l3.3-0.6v4.2c0,0,1.4-2.7,4.4,1.9
		c2.7,4.1,2,5.1,1.9,5.3c3.3-2.5,6.8-5.5,10.4-8.8C517.7,786,514.1,776.3,515.1,772.9z"/>
	<path class="st0" d="M495.2,799.4c-1.4,0-0.3-0.6,1.7-1.3c1.9-3.7,0.8-14.1,0.8-14.1c-5.1,1.1-10.8,0.3-12.3,1.3V802
		c0,0,5.7,2.2,10,0c2.8-0.7,7-3.4,11.9-7.2c-0.2,0-6.8,1.9-10.4,3.3C496.5,798.9,495.9,799.4,495.2,799.4z"/>
	<path class="st0" d="M528.1,776.3l-10.4,9.7C521.2,782.9,524.7,779.6,528.1,776.3z"/>
	<path class="st0" d="M550,753c-2.2-3.3-4.9-5.7-8-8.7c-2.2-2.1-5.2-1.7-6.3,0l2.8,5.2c0,0-0.8,0.7-1.6,1.6c0.1,2-0.1,3.7-1.3,3.7
		c-1.8,0-0.2-2.1,1.3-3.7c-0.2-3-1.3-6.8-1.3-6.8c-0.8,3.8-8.5,13.6-17.1,22.6l4.7-3c0,0-3.2,8,1,9.9c4.1,1.9,3.8,2.4,3.8,2.4
		C538.9,765.9,548.3,755.7,550,753z M541.1,755.8c0.4-1.6-1-3.9-1-3.9l3,2.6C543,754.4,542,755.1,541.1,755.8
		c-0.1,0.5-0.4,0.9-1,1.2C538.7,757.6,539.8,756.7,541.1,755.8z"/>
	<path class="st0" d="M518.6,766.9c0,0,0,0-0.1,0.1C518.6,767,518.6,767,518.6,766.9L518.6,766.9z"/>
	<path class="st0" d="M517.7,786L517.7,786C517.7,786,517.7,786,517.7,786L517.7,786z"/>
	<path class="st0" d="M528.1,776.3C528.1,776.3,528.1,776.3,528.1,776.3C528.1,776.3,528.1,776.3,528.1,776.3L528.1,776.3z"/>
	<path class="st0" d="M507.3,794.8C507.3,794.8,507.3,794.8,507.3,794.8C507.3,794.8,507.3,794.8,507.3,794.8
		C507.2,794.8,507.3,794.8,507.3,794.8z"/>
</g>
</svg>
