<svg id="Calque_1" data-name="Calque 1" xmlns="http://www.w3.org/2000/svg" xmlns:xlink="http://www.w3.org/1999/xlink" viewBox="0 0 1000 1000"><defs><style>.cls-1{fill:#f2fcfe;}.cls-2{fill:url(#Dégradé_sans_nom_15);}.cls-3{fill:url(#Dégradé_sans_nom_17);}.cls-4{fill:url(#Dégradé_sans_nom_15-2);}.cls-5{fill:#7fb5dd;}.cls-6{fill:url(#Dégradé_sans_nom_8);}.cls-7{fill:url(#Dégradé_sans_nom_19);}</style><linearGradient id="Dégradé_sans_nom_15" x1="250.3" y1="230.61" x2="418.3" y2="340.61" gradientUnits="userSpaceOnUse"><stop offset="0" stop-color="#f2fcfe"/><stop offset="1" stop-color="#b2d4eb"/></linearGradient><linearGradient id="Dégradé_sans_nom_17" x1="419.91" y1="219.32" x2="543.91" y2="385.32" gradientUnits="userSpaceOnUse"><stop offset="0" stop-color="#b2d4eb"/><stop offset="1" stop-color="#7fb5dd"/></linearGradient><linearGradient id="Dégradé_sans_nom_15-2" x1="870.07" y1="368.62" x2="767.18" y2="469.64" xlink:href="#Dégradé_sans_nom_15"/><linearGradient id="Dégradé_sans_nom_8" x1="400.04" y1="736.39" x2="454.04" y2="860.39" gradientUnits="userSpaceOnUse"><stop offset="0" stop-color="#7fb5dd"/><stop offset="1" stop-color="#1c92d2"/></linearGradient><linearGradient id="Dégradé_sans_nom_19" x1="479.04" y1="809.98" x2="509.04" y2="881.98" xlink:href="#Dégradé_sans_nom_8"/></defs><title>Plan de travail 1</title><path class="cls-1" d="M68.58,515.35c-3.22-4.14,1.84-8.29,0-12.89s-4.6,5.07-9.21,0c6-87,18.88-176.35,65.38-231.15,4.6-3.68-8.75,32.23,0,29.47S210.4,166.32,215,167.25s-4.14,13.35,0,14.73,22.56-14.73,34.07-29.47c6,0-4.6,9.67,0,11.05s42.36-23,58-48.81c5.07,0-4.6,7.37,0,9.21,0,0,19.8-6.91,23.94-3.68s3.22,9.21,0,18.42c-33.15,1.38-181,197.54-180.5,201.68s12.43.46,16.58,0c-15.2,12.43-54.79,151.49-63.54,180.5C85.16,524.56,71.8,519.49,68.58,515.35Z"/><path class="cls-2" d="M147.33,523.85c-5.53-.92,7.29-116,55.72-175C259.68,249.11,399,88.26,428.21,78.13c9.77,12.43,0,27.63,0,27.63s13.2-17.5,20.26-16.58-10.13,16.88,10.13,11.05S526.13,52,536,56.94c-2.46,8-8.6,17.8-6.45,23s11.36.31,19.34,3.68-4.91,6.45-11.05,6.45,29.47-4.91,35,0-130.16,50.34-135.37,67.23c27.93.31-70.91,29.78-140.9,176.82-6.14,15.66,7.37-3.38,9.21,5.53S248,519.24,255.08,534c-10.13,18.42-69.07,7.37-78.28,0a19.22,19.22,0,0,1-7.37-17.5S152.86,524.77,147.33,523.85Z"/><path class="cls-3" d="M287.63,543c11.66-5.53,9.21-64.46,9.21-64.46s8.6,17.19,8.29,6.45C330.6,329.33,481,138.7,534.43,137.78c1.23,12.28,35.61-28.79,42.36-30.39s0,18.42,0,18.42,22.72-20,29.47-18.42,0,13.81,0,13.81,7.37-3.68,14.73-6.45-14.73,21.79-13.81,34.07,80.12-41.35,97.62-41.44a97.76,97.76,0,0,0-22.1,23s26.09-15.66,34.07-15.66,12.84,9.85,0,19.34C679.32,145.76,589.69,228,589.69,228a164.63,164.63,0,0,0,24.86-.92c-54.95,37.14-128.93,202.6-128.93,202.6s8.21-3.37,16.58-.92c-14.43,12.89-17.5,57.1-24.86,66.31s-24.86,12-24.86,12-2.15-33.46-10.13-28.55-21.49,42.36-30.39,47S380.64,519,380.64,519s12.59,12.28,3.68,15.66S369.59,531,369.59,531,340.34,514.31,341,521.8s2.77,23,0,35.92C322.62,553.06,317.1,543,317.1,543s-1.23,14.73-8.29,14.73-5.64-8.06-11.05-14.73S276,548.5,287.63,543Z"/><path class="cls-1" d="M707.44,202.15c-6-6.32,25.84-9.19,30.15-15.51s-7.75-11.2-7.75-11.2S762,170,765.16,159.94c21,0,65.47,53.41,65.47,53.41s-6,7.78,0,12.06l45.66,32.73s24.12,51.69,13.78,49.1-30.15-39.63-30.15-39.63-62.31-58.58-61.16-50,44.22,45.37,56,57.72,58.86,91.6,86.14,174C877.15,344.57,770.76,227.42,707.44,202.15Z"/><path class="cls-4" d="M655.69,247.43s20.67-19.53,32.73-16.37c151.9,92.34,223.11,193.82,251.54,292,2.58,24.12,0,34.46,0,34.46S932.2,541.23,927,542s2.87,22.4,2.58,27.57-12.92,0-12.92,0,8,15.94,8.61,23.26-8.61,0-8.61,0,10.91,14.07,5.17,19-19-14.64-19-14.64,22.4,61.45,13.78,63.75S843.76,484.61,797.82,469.68c7.47,13.21,6.89,25.84,0,22.4-22.4-52.83-40.2-85.57-198.13-171.42C590.5,323.4,616.06,300,616.06,300l-16.37-4.31,46.52-44.79,22.4,7.75Z"/><path class="cls-5" d="M582.39,347.73c192.67,85.86,272.5,235.17,292.88,436.74-22.68,13.78.29-27.57-7.75-25.84s-14,22.95-13.78,12.06l.86-50.82s-8.33,21.54-13.78,26.7-18.52-3.45-18.52-3.45,8.18,81.55,0,81.84-16.8-46.8-28-44.79-19.81,14.64-19.81,14.64,3.73,58.15-5.6,50.82S753,840.46,753,840.46s-.29-20.39-6.89-30.15c0,0-5.46,51.69-17.23,51.69,2-172.86-30.08-279.68-205-374.72-8.61-14.07,20.67.86,20.67.86s-19.09-26.7-20.67-37.47S562.42,364.1,568.61,365s10.34,14.64,10.34,14.64S575.79,347.73,582.39,347.73Z"/><path class="cls-5" d="M58.77,551c0-10.44,69.38,24.56,97.62,28.55s177.43,12,221-13.81c3.07,6.75-25.79,27.63-25.79,27.63s113.58-48.5,133.53-64.46c18.73-5.53,11.05,4.6,11.05,4.6s-35.92,27.68-27.63,27.63,40.83-20,47.89-21.18-22.56,20.26-20.26,25.79,26.71-4.55,41.44-4.6,66.31,49.12,58.94,61.24c-98.08,91.32-396,136.3-466.9,84.26,10.13-13.2,7.67-22.1.92-33.15S84.55,671.92,79,656c15.35-7.37,4.3-17.19,6.45-27.63s-13.2-22.72-11.05-34.07-15.66-21.18-15.66-28.55,9.21,0,9.21,0S58.77,561.41,58.77,551Z"/><path class="cls-6" d="M107.57,748.66c35,.31,96.08,21.18,125.24,12s12-14.73,23-21.18c155.33,5.22,243.74-33.08,240.36-23.94s113.27-57.1,123.4-57.1c47,24.89,56.79,53.72,53.41,63.54s19.27,8.6,24.86,13.81-44.2,35-44.2,35-8-31-11.05-12.89c-3.07,36.53-171.9,74-173.13,81s-6.14-8.9,0-29.47-86.57,67.23-234.83,41.44c-8.29-4.3,13.81-20.26,13.81-20.26H211.64s1.23-25.17-2.76-33.15-41.44.92-41.44.92l-12.89-10.13-29.47-3.68,62.62-10.13S103.58,755.1,107.57,748.66Z"/><path class="cls-7" d="M284.23,895.61c0-7.37,114.19-7.37,136.3-7.37s81-36.38,99.46-35,114.19-56.64,124.32-57.1l9.21,9.21s36.76-39.14,42.36-28.55-6.91,27.63-12,45.12c21.18,5.53,12,46,12,46s12.89,4.6,12.89,14.73S607,942.58,594.58,942.58s-2.76-12.89-11.05-14.73S563.73,949,554.06,949s-20.26-10.13-20.26-10.13l-28.55,3.68s10.9-3.68,9.21-15.66S398.88,949,367.11,925.08c-7.83,0,14-19.24,1.84-16.58-8.38,14.81-34.61,13-58.94,12.89l3.68-17.5S284.23,903,284.23,895.61Z"/></svg>