<?xml version="1.0" encoding="utf-8"?>
<!-- Generator: Adobe Illustrator 21.0.0, SVG Export Plug-In . SVG Version: 6.00 Build 0)  -->
<svg version="1.1" id="Layer_1" xmlns="http://www.w3.org/2000/svg" xmlns:xlink="http://www.w3.org/1999/xlink" x="0px" y="0px"
	 viewBox="0 0 1000 1000" style="enable-background:new 0 0 1000 1000;" xml:space="preserve">
<style type="text/css">
	.st0{fill:#A4C964;}
	.st1{fill:#FFFFFF;}
</style>
<path class="st0" d="M366.3,42.3c1.2-1.7,4.2-2.1,6.3,0c3.1,2.9,5.8,5.3,8,8.7c-3.8,5.8-42.5,45.8-54.7,49c-4.3,2.2-10,0-10,0V83.3
	c1.5-1,7.2-0.2,12.3-1.3C338.2,78.8,364.8,49.5,366.3,42.3z"/>
<path class="st0" d="M382.7,78.4c-1.2-1.7-4.2-2.1-6.3,0c-3.1,2.9-5.8,5.3-8,8.7c3.8,5.8,42.5,45.8,54.7,49c4.3,2.2,10,0,10,0v-16.7
	c-1.5-1-7.2-0.2-12.3-1.3C410.8,114.9,384.2,85.5,382.7,78.4z"/>
<path class="st0" d="M366.3-27.2c1.2-1.7,4.2-2.1,6.3,0c3.1,2.9,5.8,5.3,8,8.7c-3.8,5.8-42.5,45.8-54.7,49c-4.3,2.2-10,0-10,0V13.8
	c1.5-1,7.2-0.2,12.3-1.3C338.2,9.3,364.8-20,366.3-27.2z"/>
<path class="st0" d="M382.7,8.9c-1.2-1.7-4.2-2.1-6.3,0c-3.1,2.9-5.8,5.3-8,8.7c3.8,5.8,42.5,45.8,54.7,49c4.3,2.2,10,0,10,0V49.9
	c-1.5-1-7.2-0.2-12.3-1.3C410.8,45.4,384.2,16,382.7,8.9z"/>
<path class="st0" d="M366.3,181.3c1.2-1.7,4.2-2.1,6.3,0c3.1,2.9,5.8,5.3,8,8.7c-3.8,5.8-42.5,45.8-54.7,49c-4.3,2.2-10,0-10,0
	v-16.7c1.5-1,7.2-0.2,12.3-1.3C338.2,217.8,364.8,188.5,366.3,181.3z"/>
<path class="st0" d="M382.7,217.4c-1.2-1.7-4.2-2.1-6.3,0c-3.1,2.9-5.8,5.3-8,8.7c3.8,5.8,42.5,45.8,54.7,49c4.3,2.2,10,0,10,0
	v-16.7c-1.5-1-7.2-0.2-12.3-1.3C410.8,253.9,384.2,224.5,382.7,217.4z"/>
<path class="st0" d="M366.3,111.8c1.2-1.7,4.2-2.1,6.3,0c3.1,2.9,5.8,5.3,8,8.7c-3.8,5.8-42.5,45.8-54.7,49c-4.3,2.2-10,0-10,0
	v-16.7c1.5-1,7.2-0.2,12.3-1.3C338.2,148.3,364.8,119,366.3,111.8z"/>
<path class="st0" d="M382.7,147.9c-1.2-1.7-4.2-2.1-6.3,0c-3.1,2.9-5.8,5.3-8,8.7c3.8,5.8,42.5,45.8,54.7,49c4.3,2.2,10,0,10,0
	v-16.7c-1.5-1-7.2-0.2-12.3-1.3C410.8,184.4,384.2,155,382.7,147.9z"/>
<path class="st0" d="M366.3,320.3c1.2-1.7,4.2-2.1,6.3,0c3.1,2.9,5.8,5.3,8,8.7c-3.8,5.8-42.5,45.8-54.7,49c-4.3,2.2-10,0-10,0
	v-16.7c1.5-1,7.2-0.2,12.3-1.3C338.2,356.8,364.8,327.5,366.3,320.3z"/>
<path class="st0" d="M382.7,356.4c-1.2-1.7-4.2-2.1-6.3,0c-3.1,2.9-5.8,5.3-8,8.7c3.8,5.8,42.5,45.8,54.7,49c4.3,2.2,10,0,10,0
	v-16.7c-1.5-1-7.2-0.2-12.3-1.3C410.8,392.9,384.2,363.5,382.7,356.4z"/>
<path class="st0" d="M366.3,250.8c1.2-1.7,4.2-2.1,6.3,0c3.1,2.9,5.8,5.3,8,8.7c-3.8,5.8-42.5,45.8-54.7,49c-4.3,2.2-10,0-10,0
	v-16.7c1.5-1,7.2-0.2,12.3-1.3C338.2,287.3,364.8,258,366.3,250.8z"/>
<path class="st0" d="M382.7,286.9c-1.2-1.7-4.2-2.1-6.3,0c-3.1,2.9-5.8,5.3-8,8.7c3.8,5.8,42.5,45.8,54.7,49c4.3,2.2,10,0,10,0
	v-16.7c-1.5-1-7.2-0.2-12.3-1.3C410.8,323.4,384.2,294,382.7,286.9z"/>
<path class="st0" d="M366.3,389.8c1.2-1.7,4.2-2.1,6.3,0c3.1,2.9,5.8,5.3,8,8.7c-3.8,5.8-42.5,45.8-54.7,49c-4.3,2.2-10,0-10,0
	v-16.7c1.5-1,7.2-0.2,12.3-1.3C338.2,426.3,364.8,397,366.3,389.8z"/>
<path class="st0" d="M382.7,425.9c-1.2-1.7-4.2-2.1-6.3,0c-3.1,2.9-5.8,5.3-8,8.7c3.8,5.8,42.5,45.8,54.7,49c4.3,2.2,10,0,10,0
	v-16.7c-1.5-1-7.2-0.2-12.3-1.3C410.8,462.4,384.2,433,382.7,425.9z"/>
<g>
	<path class="st0" d="M369,481l-0.5,0.6C368.7,481.4,368.9,481.2,369,481z"/>
	<path class="st0" d="M376.4,473.1c2.1-2.4,3.7-4.2,4.3-5.1c-2.2-3.3-4.9-5.7-8-8.7c-2.2-2.1-5.2-1.7-6.3,0
		c-1.5,7.2-28.2,36.5-38,39.7c-5.1,1.1-10.8,0.3-12.3,1.3v3.8l0.9,0.4L316,505v12c0,0,5.7,2.2,10,0c8.3-2.2,28.8-21.4,42.3-35.3
		l-3.8-4.5l4.9,3.3c1.1-1.2,2.2-2.3,3.2-3.3l-2.3-8.2L376.4,473.1z M326.8,509c-0.1-0.6,1-0.6,1,0S326.8,509.6,326.8,509z
		 M355.9,478.8l1.2,0.4l1.2,1.4L355.9,478.8z"/>
	<path class="st0" d="M376.3,473.2l-3.7,4C374,475.8,375.2,474.4,376.3,473.2z"/>
	<path class="st0" d="M376.4,473.1c0,0-0.1,0.1-0.1,0.1L376.4,473.1L376.4,473.1z"/>
	<path class="st0" d="M368.3,481.7l0.2-0.2C368.4,481.6,368.4,481.7,368.3,481.7L368.3,481.7z"/>
	<path class="st0" d="M369.4,480.6L369.4,480.6c-0.1,0.1-0.3,0.3-0.4,0.4L369.4,480.6z"/>
</g>
<g>
	<path class="st0" d="M373.1,506.6l1.1-4.8l-0.6-3.9c-2,1.9-3.8,3.8-5.3,6.1c0.6,0.9,2,2.5,3.9,4.7l1-0.6L373.1,506.6z"/>
	<path class="st0" d="M433,536.4c-1.5-1-7.2-0.2-12.3-1.3c-9.8-3.2-36.5-32.5-38-39.7c-1.2-1.7-4.2-2.1-6.3,0
		c-0.9,0.9-1.8,1.7-2.7,2.6l1.5,4.3l-1,2.5l1.4-0.4l-1.2,1l-0.9,3.6l-1.2-0.2c11,12.3,40.4,41.6,50.7,44.3c1.5,0.7,3.1,1,4.6,1
		c0,0-3.4-6.1-6-7.4c-2.6-1.3-1-8.7-1-8.7s1.1,2.4,1.4,4.4c0.3,2,2.8,0.6,5,1.2c2.2,0.6,0.6,10.4,0.6,10.4c2.9,0,5.4-1,5.4-1V536.4z
		 M415.6,539.6c0.3-0.4,1.2,0,1.2,0C416.3,541.2,415.2,540,415.6,539.6z"/>
	<polygon class="st0" points="373.6,497.9 373.6,497.9 373.6,497.9 	"/>
	<polygon class="st0" points="372.3,508.8 372.3,508.8 372.3,508.8 	"/>
	<polygon class="st0" points="427.6,554 427.6,554 427.6,554 	"/>
</g>
<g>
	<path class="st0" d="M350.8,568.2l-4.8,4.3C347.6,571.1,349.2,569.7,350.8,568.2z"/>
	<path class="st0" d="M354.9,564.5c-0.3,0.3-0.9,0.8-1.3,1.2C354,565.3,354.5,564.9,354.9,564.5z"/>
	<path class="st0" d="M348.3,558.8c-2.2-0.9,3.9,1.3,4.8,2.7c0.9,1.4,1.5,3.3,2,2.9c12.2-11.5,23.6-23.8,25.6-26.8
		c-2.2-3.3-4.9-5.7-8-8.7c-2.2-2.1-5.2-1.7-6.3,0c-1.5,7.2-28.2,36.5-38,39.7c-5.1,1.1-10.8,0.3-12.3,1.3v16.7c0,0,5.7,2.2,10,0
		c4.3-1.1,11.8-6.7,19.9-13.8l-7.1-11.2c0,0,5,0.2,4.2,0.8c-0.8,0.6,1.9,4,1.9,4l6.1,1.9c0.7-0.6,1.4-1.3,2.1-1.9
		C353.1,566.1,350.6,559.7,348.3,558.8z M360.3,538.8l0.7,1.6l3,4l5.9,1.5c0,0-3.7,5.3-3.7,3.9s0.9-1.4-3-2.7
		S360.3,538.8,360.3,538.8z M317.5,584.4c0,0,0.8-0.9,0.8,0C318.3,585.3,318.2,584.9,317.5,584.4z M321.2,585
		c-2.3,1.6-0.7-1.7-0.7-1.7h1.5C322,583.3,323.8,583.2,321.2,585z"/>
	<path class="st0" d="M345.9,572.7l0.1-0.1C346,572.6,345.9,572.6,345.9,572.7L345.9,572.7z"/>
	<path class="st0" d="M351,568.1L351,568.1c-0.1,0-0.1,0.1-0.2,0.1L351,568.1z"/>
	<path class="st0" d="M353.1,566.2c0,0,0.2-0.2,0.5-0.5C353.4,565.8,353.3,566,353.1,566.2C353.1,566.2,353.1,566.2,353.1,566.2z"/>
	<path class="st0" d="M355.1,564.3C355.1,564.3,355.1,564.3,355.1,564.3C355.1,564.2,355.1,564.2,355.1,564.3z"/>
	<path class="st0" d="M354.9,564.5c0.1-0.1,0.1-0.1,0.2-0.2c0,0,0,0,0,0C355,564.4,354.9,564.4,354.9,564.5z"/>
</g>
<g>
	<path class="st0" d="M368.3,573.5c1.3,2,6.7,7.9,13.7,15.1c-1.5-2.2-8-21.5-8-21.5C371.9,569.1,369.9,571,368.3,573.5z"/>
	<path class="st0" d="M424.5,605.1l8.5,0.8c-1.5-1-7.2-0.2-12.3-1.3c-2-0.6-4.6-2.3-7.5-4.6l0.1,0.1v7c0,0-1.1-0.5-1.8-3.4
		c-0.7-2.9,0.2-2.4,0-3.2c-0.2-0.9-1.8-3.5-1.8-3.5l0.1,0.1c-11.5-10.1-25.9-26.9-27-32.1c-1.2-1.7-4.2-2.1-6.3,0
		c-0.8,0.8-1.6,1.5-2.3,2.2c0,0,1.5,1.3,3.6,3.2c2.1,1.9,5.6,18.7,4.6,18.5c13.5,13.7,32.8,31.6,40.8,33.7c4.3,2.2,10,0,10,0v-3.9
		l-9.8-11.1L424.5,605.1z M382.4,577.5c0.6-2.5-2.7-7-2.7-7l4,3.5C383.6,574,381.8,580,382.4,577.5z"/>
	<path class="st0" d="M382.2,588.8C382.2,588.8,382.2,588.8,382.2,588.8c-0.1-0.1-0.1-0.1-0.2-0.2
		C382.1,588.7,382.1,588.8,382.2,588.8z"/>
	<polygon class="st0" points="374,567 374,567 374,567 	"/>
	<path class="st0" d="M409.6,597c1.2,1.1,2.4,2,3.5,2.9L409.6,597z"/>
</g>
<g>
	<path class="st0" d="M374.8,600.4l4.1,4.3C377.7,603.2,376.3,601.8,374.8,600.4z"/>
	<path class="st0" d="M338.8,631L338.8,631l9,7.3l-1.7,3.7c4.6-4,9.4-8.5,13.9-13l-10.8-8.1C345.8,624.5,342.2,628,338.8,631z"/>
	<path class="st0" d="M342.3,645.2c1.3-1.1,2.5-2.1,3.8-3.3l-3.1-3.4L342.3,645.2z"/>
	<path class="st0" d="M333.4,635.2L333.4,635.2c-1.9,1.3-3.7,2.3-5.1,2.8c-5.1,1.1-10.8,0.3-12.3,1.3V656c0,0,5.7,2.2,10,0
		c2.4-0.6,5.7-2.6,9.6-5.5C335.6,650.5,330.6,637.4,333.4,635.2z M322.6,651.9l-2.7-9.1l2-2.1c0,0-2,2.1,0.8,5.1
		S322.6,651.9,322.6,651.9z"/>
	<path class="st0" d="M363.6,625.5l-3.4,3.3C361.4,627.7,362.5,626.6,363.6,625.5z"/>
	<path class="st0" d="M342.2,645.3l-6.6,5.2C337.7,649,339.9,647.2,342.2,645.3z"/>
	<path class="st0" d="M361.5,606.7l3.5,2.3l-1.4-5.3l10.4,11c3.4-3.7,5.8-6.5,6.7-7.7c-0.5-0.8-1.1-1.6-1.7-2.3l-0.8,3.2
		c0,0,0.1,1-2.7,1.2l-0.7-8.7c-0.7-0.7-1.4-1.3-2.2-2c-2.2-2.1-5.2-1.7-6.3,0c-0.6,3.1-5.9,10.2-12.5,17.6l0,0l6.3,2.7l3.5,6.8
		c2.7-2.7,5.2-5.2,7.4-7.6l-8.7-8.8L361.5,606.7z"/>
	<path class="st0" d="M371.3,617.7c0.9-1,1.9-2,2.7-2.9L371.3,617.7z"/>
	<polygon class="st0" points="379,604.7 379,604.7 379,604.7 	"/>
	<polygon class="st0" points="374.8,600.4 374.8,600.4 374.8,600.4 	"/>
	<path class="st0" d="M371.1,617.9l0.2-0.2C371.2,617.7,371.1,617.8,371.1,617.9L371.1,617.9z"/>
	<path class="st0" d="M374,614.7L374,614.7C374,614.8,374,614.8,374,614.7L374,614.7z"/>
	<path class="st0" d="M349.3,620.8L349.3,620.8c1.5-1.6,3.1-3.3,4.5-4.9L349.3,620.8z"/>
	<path class="st0" d="M363.7,625.4L363.7,625.4C363.7,625.5,363.6,625.5,363.7,625.4L363.7,625.4z"/>
	<path class="st0" d="M360.1,629l0.1-0.1C360.2,628.9,360.2,628.9,360.1,629L360.1,629z"/>
	<polygon class="st0" points="346.2,641.9 346.2,641.9 346.2,641.9 	"/>
	<path class="st0" d="M333.5,635.1c1.6-1.2,3.4-2.6,5.3-4.2L333.5,635.1z"/>
	<path class="st0" d="M342.3,645.2L342.3,645.2c0,0-0.1,0.1-0.1,0.1L342.3,645.2z"/>
	<path class="st0" d="M335.6,650.5L335.6,650.5C335.6,650.5,335.6,650.5,335.6,650.5C335.6,650.5,335.6,650.5,335.6,650.5z"/>
</g>
<g>
	<path class="st0" d="M393.9,650.5L393.9,650.5c-3.1-3.5-5.8-6.9-7.8-9.8l0,0c0,0-6.5,8.4-5.5,3.3l2-9.6c-1.2-1.7-4.2-2.1-6.3,0
		c-3.1,2.9-5.8,5.3-8,8.7c1.8,2.8,11.9,13.7,23.2,24.6c0-0.2,0.1-0.4,0.1-0.7C389.8,661,393.9,650.5,393.9,650.5z"/>
	<path class="st0" d="M413.7,686.8l-4.8-3.7C410.6,684.4,412.2,685.7,413.7,686.8z"/>
	<path class="st0" d="M402.3,672.3c0,0,3.4-9.4,2.4-10.4c0,0,0,0,0,0c-2.5-2.4-4.9-4.9-7.3-7.5l0,0c0,0-4.9,8.8-5.8,12.4
		c0.2,0.5,0.4,1,0.6,1.4c3.8,3.6,7.7,7.2,11.5,10.5l-6.4-5.7L402.3,672.3z"/>
	<path class="st0" d="M433,675.4c-1.3-0.8-5.4-0.4-9.8-0.9l-0.9,2.1c0,0-1.6,2.5-2.8,2.3c-1.2-0.2,1.1-4.8,1.1-4.8
		c-3-1-7.7-4.5-12.7-9l-4.1,13.8c1.7,1.4,3.3,2.8,4.9,4.1l3.3-2c-0.4,1.7,1.7,5.9,1.7,5.9c3.8,2.7,7,4.6,9.3,5.2c4.3,2.2,10,0,10,0
		v-5.2c0,0,0-1.7-2.4-1.5c-2.4,0.2-2.4,0.2-2.4,0.2l4.9-4.5V675.4z M423.5,688.3c-0.1,0.4-0.2,0.7-0.5,0.8
		C422.2,689.4,422.8,689,423.5,688.3c0.2-1.5-0.9-4.6-1.1-5.3c0-0.1-0.1-0.1-0.1-0.1s0,0.1,0.1,0.1c0.2,0.4,0.8,1.9,1.9,3
		C425,686.7,424.2,687.6,423.5,688.3z"/>
	<path class="st0" d="M382.7,634.4c0.3,1.4,1.5,3.6,3.4,6.4L382.7,634.4z"/>
	<path class="st0" d="M393.9,650.6c1.1,1.3,2.3,2.6,3.5,3.9L393.9,650.6z"/>
	<path class="st0" d="M392.3,668.3C392.3,668.3,392.3,668.3,392.3,668.3c-0.3-0.2-0.5-0.5-0.8-0.7
		C391.5,668.2,391.7,668.6,392.3,668.3z"/>
	<path class="st0" d="M408,665c0,0-4.3-4-3.3-3.1C405.8,663,406.9,664,408,665L408,665z"/>
	<path class="st0" d="M403.9,678.8L403.9,678.8C403.8,678.8,403.8,678.8,403.9,678.8L403.9,678.8z"/>
	<path class="st0" d="M423.2,674.4l-2.6-0.4C421.5,674.2,422.4,674.3,423.2,674.4L423.2,674.4z"/>
	<path class="st0" d="M413.7,686.8L413.7,686.8C413.7,686.8,413.7,686.8,413.7,686.8L413.7,686.8z"/>
	<path class="st0" d="M408.7,682.9l0.2,0.1C408.8,683,408.8,683,408.7,682.9L408.7,682.9z"/>
</g>
<g>
	<path class="st0" d="M318.3,726.1C318.3,726.1,318.3,726.1,318.3,726.1c0.5,4,9.5-1.3,9.7-1.4c-0.7,0.3-1.4,0.6-2,0.8
		C323.4,726.8,320.4,726.5,318.3,726.1z"/>
	<path class="st0" d="M331.6,722.8L331.6,722.8C331.6,722.8,331.6,722.8,331.6,722.8L331.6,722.8z"/>
	<path class="st0" d="M339.5,717.1L339.5,717.1C339.4,717.1,339.4,717.1,339.5,717.1L339.5,717.1z"/>
	<path class="st0" d="M372.7,667.8c-2.2-2.1-5.2-1.7-6.3,0c-0.7,3.6-7.8,12.7-15.9,21.3l0,0l13.6,5.4c8.4-8.4,15.1-15.8,16.6-18
		C378.5,673.2,375.7,670.8,372.7,667.8z"/>
	<path class="st0" d="M326.5,711.8l1.8-4.3c-5.1,1.1-10.8,0.3-12.3,1.3v16.7c0,0,0.9,0.4,2.3,0.6
		C317.9,722.1,326.5,711.8,326.5,711.8z"/>
	<path class="st0" d="M339.4,717.1l-7.8,5.7C333.9,721.3,336.6,719.4,339.4,717.1z"/>
	<path class="st0" d="M346.8,693C346.8,693,346.8,693,346.8,693c-7,7.1-14.3,13.2-18.4,14.5h3.1l2.5-3.1l-2.5,7.4l3.5-1.2l4.5,6.4
		c3.1-2.5,6.5-5.4,9.9-8.5C349.3,708.6,349.5,692.9,346.8,693z"/>
	<path class="st0" d="M328,724.7C328,724.7,328,724.7,328,724.7c1-0.5,2.2-1.1,3.5-2l0.1-7L328,724.7z"/>
</g>
<path class="st1" d="M424.9,754.3v2.3c0,0,0.9-1,0.9-1.6C425.8,754.5,424.9,754.3,424.9,754.3z"/>
<g>
	<path class="st0" d="M401.2,740.8c-1.6-0.2-4.9,0.6-5,0.6c1.1,1,2.2,2,3.3,3c-0.5-1.3-0.5-3-0.5-3S402.8,741,401.2,740.8z"/>
	<path class="st0" d="M389.7,715L389.7,715c-3.8-4.8-6.5-9-7-11.1c-1.2-1.7-4.2-2.1-6.3,0c-3.1,2.9-5.8,5.3-8,8.7
		c1.5,2.3,8.7,10.2,17.6,19C389.1,732.4,389.7,715,389.7,715z M378.8,719c-1.8-0.1-1.6-5.8-1.6-5.8s1,0.7,1.1,1.8
		C378.5,716.2,380.7,719.1,378.8,719z"/>
	<path class="st0" d="M393.6,719.7L393.6,719.7c0,0,0.7,1.6-1.5,1.7c-2.2,0.1,0.4,9.9,1,11.7c0.4,1.3-4.6-0.3-6.8-1.1
		c3.2,3.1,6.5,6.4,9.9,9.5l8.5-10C400.9,727.8,397,723.7,393.6,719.7z"/>
	<path class="st0" d="M420.7,743.5c-2.8-0.9-7-4-11.6-8.1c0,0,0,0,0,0s0.1,1-1.2,1.7c-1.3,0.7-4.5,8.9-6.7,8.7
		c8.9,7.9,17.3,14.4,21.9,15.6c4.3,2.2,10,0,10,0v-11.2c0,0-0.8,1.6-0.9,0.3s-1.6,0-1.6,0s-1.4,1.6-1.2-1c0.3-2.6,3.7,0.7,3.7,0.7
		v-5.5C431.5,743.9,425.8,744.7,420.7,743.5z M411.9,750.7c0,0-0.2,0.1-0.4,0.3c0.1,0.6,0,1.1-0.5,1.1c-0.8,0,0-0.7,0.5-1.1
		c-0.1-0.8-0.5-1.7-0.5-1.7h0.8V750.7z M423.6,749.9c-0.1,0,0-0.6,0.2-1.4c0-1.7-0.2-4.4-0.2-4.4h1.8c0,0-1.1,2.7-1.6,4.4
		C423.8,749.3,423.7,749.9,423.6,749.9z"/>
	<path class="st0" d="M385.9,731.6C385.9,731.6,385.9,731.6,385.9,731.6c-1-0.3-0.6,0,0.4,0.4C386.2,731.8,386.1,731.7,385.9,731.6z
		"/>
	<path class="st0" d="M390.5,713.9l-0.8,1.1c1.2,1.5,2.5,3.1,3.9,4.7L390.5,713.9z"/>
	<polygon class="st0" points="396.2,741.5 396.2,741.5 396.2,741.5 	"/>
	<path class="st0" d="M401.1,745.9C401.1,745.9,401.1,745.9,401.1,745.9c-0.5-0.5-1.1-1-1.6-1.4
		C399.8,745.3,400.3,745.9,401.1,745.9z"/>
	<path class="st0" d="M404.7,731.5L404.7,731.5c1.4,1.4,2.9,2.7,4.3,4C409,735.4,406.6,731.6,404.7,731.5z"/>
</g>
<g>
	<path class="st0" d="M323.2,795.8c1-0.1,1.9-0.4,2.8-0.8c1.8-0.5,4.1-1.7,6.8-3.5C332.3,791.7,325.9,795,323.2,795.8
		C323.2,795.8,323.2,795.8,323.2,795.8z"/>
	<path class="st0" d="M348.3,779l-3.3,2.9C346.1,781,347.2,780,348.3,779z"/>
	<path class="st0" d="M363.3,755.4c5.9,1.1,5,4.3,5,4.3c6.3-6.5,11.1-11.9,12.3-13.7c-2.2-3.3-4.9-5.7-8-8.7c-2.2-2.1-5.2-1.7-6.3,0
		c-0.3,1.3-1.4,3.3-3,5.8l0,0C363.3,743.1,357.4,754.3,363.3,755.4z M368.4,743.7c0,0-1.2,2.8-1.1,1.6c0.2-1.2-0.9-1.6-0.9-1.6
		H368.4z"/>
	<path class="st0" d="M358.7,749.2C358.7,749.3,358.7,749.3,358.7,749.2C358.7,749.3,358.7,749.3,358.7,749.2L358.7,749.2z"/>
	<path class="st0" d="M329.9,784.5c0,0,0.3-2.7-1.5-2.4c-1.9,0.3-3.8,2.4-3.8,2.4l3.8-7.5c-5.1,1.1-10.8,0.3-12.3,1.3V795
		c0,0,3.4,1.3,6.9,0.9C321.1,795.8,329.9,784.5,329.9,784.5z"/>
	<path class="st0" d="M358.2,749.8c-7.8,9.5-19.3,21.1-26.6,25.6l0,0l2.1,6.7l-0.9,9.4c3.5-2.3,7.6-5.6,12-9.4c0,0,1.9-8.3-1.3-10.9
		c-3.2-2.6,10.6,2.5,10.6,2.5c3.2-3,6.4-6.1,9.4-9.1C363.5,764.6,356.7,753,358.2,749.8z M339.5,776.4c-0.1,1.8-0.5-0.1-0.8-2.2
		c-0.7-0.4-1.7-0.1-1.7-0.1l1.3-3.7c0,0,0.2,1.9,0.5,3.7C339.2,774.5,339.5,775.1,339.5,776.4z"/>
	<path class="st0" d="M363.6,764.5c1.6-1.6,3.1-3.2,4.6-4.7L363.6,764.5z"/>
	<path class="st0" d="M354.1,773.8l-5.3,4.8C350.5,777,352.3,775.4,354.1,773.8z"/>
	<path class="st0" d="M348.6,778.8l0.2-0.2c-0.2,0.1-0.3,0.3-0.5,0.4L348.6,778.8z"/>
	<path class="st0" d="M354.1,773.7L354.1,773.7C354.1,773.7,354.1,773.7,354.1,773.7L354.1,773.7z"/>
	<path class="st0" d="M344.8,782.1l0.2-0.1C344.9,782,344.9,782,344.8,782.1C344.8,782.1,344.8,782.1,344.8,782.1z"/>
	<path class="st0" d="M332.9,791.5L332.9,791.5C332.8,791.5,332.8,791.5,332.9,791.5C332.8,791.5,332.9,791.5,332.9,791.5z"/>
	<path class="st0" d="M323.2,795.8c-0.1,0-0.2,0-0.3,0C323,795.9,323.1,795.9,323.2,795.8z"/>
	<path class="st0" d="M328.3,777c1-0.3,2.1-0.9,3.3-1.6L328.3,777z"/>
	<path class="st0" d="M363.5,764.6l0.1-0.1C363.6,764.5,363.6,764.5,363.5,764.6L363.5,764.6z"/>
	<path class="st0" d="M368.3,759.7C368.3,759.7,368.3,759.7,368.3,759.7c0,0-0.1,0.1-0.1,0.1L368.3,759.7z"/>
	<path class="st0" d="M358.7,749.2c1.8-2.2,3.4-4.3,4.6-6.1L358.7,749.2z"/>
	<path class="st0" d="M358.2,749.8c0.1-0.2,0.3-0.3,0.4-0.5C358.5,749.4,358.4,749.6,358.2,749.8z"/>
</g>
<g>
	<path class="st0" d="M387.2,806.8l-6.9-7C382.4,802.1,384.8,804.4,387.2,806.8z"/>
	<path class="st0" d="M433,818.9c-1.5-1-7.2-0.2-12.3-1.3c-5.4-1.7-15.9-11.4-24.5-20.9l0,0c0,0,2.5,2.7-2.5,2.7
		c-4.9,0-6.3,7.6-6.4,7.7c3.2,3.1,6.5,6.3,9.8,9.4c-1.1-3.6,1.8-11.9,1.8-11.9s4.6,14,0,13.5c3.5,3.2,6.9,6.1,10.1,8.7
		c-0.1-0.1-3-5.6,0-6.1c3-0.5,0,6.1,0,6.1c5.7,4.6,10.8,8,14,8.9c4.3,2.2,10,0,10,0v-5.3l-3.7-3.5l3.7-1.3V818.9z M411.9,823.6
		c4.1,0.3,3.7-3.1,3.7-3.1l1.3,4.9C416.9,825.4,407.8,823.3,411.9,823.6z M423.5,826.7c-0.9,3.1-2.3-0.5-3.1-3.7
		C420.4,822.9,424.4,823.6,423.5,826.7z"/>
	<path class="st0" d="M389.5,795.9c-6.2-0.2-2.4-10.3-2.4-10.3l0.1,0.1c-2.5-3.4-4.2-6.2-4.5-7.9c-1.2-1.7-4.2-2.1-6.3,0
		c-3.1,2.9-5.8,5.3-8,8.7c1.2,1.8,5.8,7,12,13.3C380.3,799.8,395.7,796.1,389.5,795.9z"/>
	<path class="st0" d="M390,789.3c0-0.1-0.1-0.1-0.1-0.2L390,789.3L390,789.3z"/>
	<path class="st0" d="M387.2,785.7c0.8,1.1,1.7,2.2,2.6,3.4L387.2,785.7z"/>
	<path class="st0" d="M380.3,799.8L380.3,799.8C380.3,799.9,380.3,799.9,380.3,799.8L380.3,799.8z"/>
	<path class="st0" d="M387.4,807C387.4,807,387.4,807,387.4,807c0-0.1-0.1-0.1-0.1-0.1L387.4,807z"/>
	<path class="st0" d="M390,789.3c1.9,2.3,4,4.8,6.2,7.3L390,789.3z"/>
	<path class="st0" d="M398.9,817.9C398.9,817.9,398.9,817.9,398.9,817.9c-0.6-0.5-1.2-1.1-1.8-1.6
		C397.4,817.2,398,817.9,398.9,817.9z"/>
	<polygon class="st0" points="409,826.7 409,826.7 409,826.7 	"/>
</g>
<g>
	<path class="st0" d="M338.1,861.6l-6.8,4.8C333.4,865.2,335.7,863.5,338.1,861.6z"/>
	<path class="st0" d="M328.3,851c0,0,0.9,3.5,2.1,3.4c1.2-0.1,4.4-0.5,6.5-0.8s-1.5,5.2-1.5,5.2l2.7,2.8c4.9-3.8,10.5-8.7,15.9-13.8
		c0.1-6.4-3.7-14.9-3.7-14.9C342.3,841.4,333.2,849.4,328.3,851z"/>
	<path class="st0" d="M322.6,862.2c-2.6-0.4,8.5-3.2,5.6-5.1c-3-1.9,0.1-6.1,0.1-6.1c-5.1,1.1-10.8,0.3-12.3,1.3V869
		c0,0,5.7,2.2,10,0c1.4-0.4,3.2-1.3,5.3-2.5c-0.1,0-4,0-5.5,0C324.2,866.5,325.2,862.6,322.6,862.2z"/>
	<path class="st0" d="M354.1,833.3c1.8-1,11.5,3.2,11.5,3.2c7.7-7.7,13.7-14.4,15.1-16.5c-2.2-3.3-4.9-5.7-8-8.7
		c-2.2-2.1-5.2-1.7-6.3,0c-0.8,3.6-7.8,12.8-16,21.4C350.4,832.8,352.3,834.3,354.1,833.3z M360.9,820.5l4.8,6.2
		c0,0,1.3,5.7-2.4,1.1C359.5,823.2,360.9,820.5,360.9,820.5z"/>
	<polygon class="st0" points="350.4,832.8 350.4,832.8 350.4,832.8 	"/>
	<path class="st0" d="M354.1,847.7C354.1,847.7,354.1,847.7,354.1,847.7c3-2.1,5.6-4.9,5.6-4.9l5.9-6.4l0,0
		C362,840.1,358.1,844,354.1,847.7z"/>
	<path class="st0" d="M331.3,866.5L331.3,866.5C331.3,866.5,331.3,866.5,331.3,866.5C331.3,866.5,331.3,866.5,331.3,866.5z"/>
	<path class="st0" d="M338.2,861.5L338.2,861.5c0,0-0.1,0-0.1,0.1L338.2,861.5z"/>
</g>
<g>
	<path class="st0" d="M368.2,903.3l-5.1,5.2C364.9,906.7,366.6,905,368.2,903.3z"/>
	<path class="st0" d="M319.6,939.3l1.9-4.9c0,0,14-6.7,8.9-6.7s-4.6-6.8-4.6-6.8l0,0c-4.3,0.5-8.6,0.1-9.8,0.9v16.7
		c0,0,3.4,1.3,6.9,0.9C321.8,938.3,319.6,939.3,319.6,939.3z"/>
	<path class="st0" d="M355.7,896.3L355.7,896.3c-9,10.5-21.3,22.2-27.4,24.2l6.3,5.1l5.4-7.8l-1.8,13.2c2.8-2.2,5.7-4.7,8.8-7.4
		c0,0,0.4-0.4,1.2-1.1c0,0,0.1-0.1,0.1-0.1c5.7-5,2-13,2-13s5.4,4.3,6.8,4.8c2-1.9,4-3.8,5.8-5.7c0,0-0.1,0-5.1-1
		C352.9,906.6,355.7,896.3,355.7,896.3z"/>
	<path class="st0" d="M376.1,886.4l1,7.5c1.8-2,3-3.5,3.6-4.3c-2.2-3.3-4.9-5.7-8-8.7c-2.2-2.1-5.2-1.7-6.3,0
		c-0.5,2.3-3.5,6.9-7.8,12.1c1.2,0.9,3.9,3.2,2.1,3.4c-2.3,0.3-0.4,7.8,2.6,7.8c3,0,5.1-0.9,5.1-0.9c1.6-1.6,3.1-3.2,4.4-4.6
		C371.8,899.6,376.1,886.4,376.1,886.4z M366.9,892.6c-1,1.1,1.4-6.2,1.4-6.2S371,888.3,366.9,892.6z"/>
	<path class="st0" d="M373,898.3c1.5-1.6,2.8-3.1,4-4.3C376.5,894.6,374.1,897.1,373,898.3z"/>
	<path class="st0" d="M322.9,939.4c0,0,0.1,0,0.1,0.1c5.5-0.3,15.2-8.4,15.2-8.4l0,0c-5,3.9-9.4,6.7-12.2,7.5
		C325,939,324,939.3,322.9,939.4z"/>
	<path class="st0" d="M325.8,920.9c0.8-0.1,1.7-0.2,2.5-0.4L325.8,920.9z"/>
	<path class="st0" d="M348.3,922.5C348.3,922.5,348.3,922.5,348.3,922.5c-0.5,0.4-0.9,0.8-1.3,1.2c-0.1,0.2,10.3-8.7,10.2-9.4
		c0,0,0,0,0,0C354.3,917.1,351.3,919.8,348.3,922.5C348.3,922.5,348.3,922.5,348.3,922.5z"/>
	<path class="st0" d="M363.1,908.6L363.1,908.6C363.1,908.5,363.1,908.5,363.1,908.6C363.1,908.6,363.1,908.6,363.1,908.6z"/>
	<path class="st0" d="M358,892.6l-2.3,3.8c1-1.1,1.9-2.3,2.8-3.4C358.2,892.7,358,892.6,358,892.6z"/>
	<path class="st0" d="M368.3,903.2C368.3,903.2,368.3,903.2,368.3,903.2c0,0-0.1,0.1-0.1,0.1L368.3,903.2z"/>
	<path class="st0" d="M377.1,893.8L377.1,893.8c0,0-0.1,0.1-0.1,0.1C377.1,893.9,377.1,893.8,377.1,893.8z"/>
	<path class="st0" d="M372.7,898.6c0.1-0.1,0.2-0.2,0.3-0.3C372.9,898.4,372.8,898.5,372.7,898.6
		C372.7,898.6,372.7,898.6,372.7,898.6z"/>
</g>
<path class="st0" d="M420.7,956.5c-9.8-3.2-36.5-32.5-38-39.7c-1.2-1.7-4.2-2.1-6.3,0c-3.1,2.9-5.8,5.3-8,8.7
	c3.8,5.8,42.5,45.8,54.7,49c4.3,2.2,10,0,10,0v-16.7C431.5,956.9,425.8,957.7,420.7,956.5z M382,927.2c-4.6,0-3-5.1-3-5.1l3,1.6
	C382,923.8,386.5,927.2,382,927.2z"/>
<g>
	<path class="st0" d="M381.4,870.4l-5-5.2C377.9,866.9,379.6,868.6,381.4,870.4z"/>
	<path class="st0" d="M378.7,863c3.6-0.9,7-1.1,7-1.1l2.3-5.5l0,0c-3-3.9-5-7.2-5.4-9.1c-1.2-1.7-4.2-2.1-6.3,0
		c-3.1,2.9-5.8,5.3-8,8.7c0.9,1.4,3.9,4.8,8,9.1C376.2,865,375.3,863.8,378.7,863z"/>
	<path class="st0" d="M433,894.1v-5.8c-1.5-1-7.2-0.2-12.3-1.3c-6.3-2-19.6-14.9-28.7-25.7l0,0l-10.6,9.1
		c7.4,7.6,16.9,16.7,25.2,23.7l1.1-7.8c0,0-0.6,4.5,1.4,6.1c2,1.6-2.4,1.6-2.5,1.6c6.8,5.7,12.8,9.9,16.4,10.9c4.3,2.2,10,0,10,0
		v-5.3c0,0-1.8-0.2-5.9-2.3C423.1,895.2,433,894.1,433,894.1z M398.9,886.4c0,0,0.8-7.3,1.8-8.1s0.9,4,0.9,4L398.9,886.4z
		 M420.4,899.7c-1.5,0-1.5-2-1.1-3.8c0.4-1.7,1.1-3.3,1.1-3.3S423.4,899.8,420.4,899.7z"/>
	<path class="st0" d="M388.1,856.4c1.2,1.6,2.5,3.2,3.9,4.9L388.1,856.4z"/>
	<path class="st0" d="M376.3,865.2L376.3,865.2C376.4,865.2,376.3,865.2,376.3,865.2C376.3,865.2,376.3,865.2,376.3,865.2z"/>
	<path class="st0" d="M381.4,870.5L381.4,870.5C381.4,870.5,381.4,870.4,381.4,870.5L381.4,870.5z"/>
	<polygon class="st0" points="406.5,894.1 406.6,894.1 406.5,894.1 	"/>
</g>
<path class="st0" d="M420.7,1026c-9.8-3.2-36.5-32.5-38-39.7c-1.2-1.7-4.2-2.1-6.3,0c-3.1,2.9-5.8,5.3-8,8.7
	c3.8,5.8,42.5,45.8,54.7,49c4.3,2.2,10,0,10,0v-16.7C431.5,1026.4,425.8,1027.2,420.7,1026z M381.4,995.5c-4.1,0,2.6-6,2.6-6
	S385.5,995.5,381.4,995.5z"/>
<g>
	<path class="st0" d="M345.7,978.9c0.9-3,3-5.4,3.4-5.9c-7.7,8.1-16.2,15.5-20.8,17l3.3-0.6v4.2c0,0,1.4-2.7,4.4,1.9
		c2.7,4.1,2,5.1,1.9,5.3c3.3-2.5,6.8-5.5,10.4-8.8C348.3,992,344.7,982.3,345.7,978.9z"/>
	<path class="st0" d="M325.8,1005.4c-1.4,0-0.3-0.6,1.7-1.3c1.9-3.7,0.8-14.1,0.8-14.1c-5.1,1.1-10.8,0.3-12.3,1.3v16.7
		c0,0,5.7,2.2,10,0c2.8-0.7,7-3.4,11.9-7.2c-0.2,0-6.8,1.9-10.4,3.3C327.1,1004.9,326.5,1005.4,325.8,1005.4z"/>
	<path class="st0" d="M358.7,982.3l-10.4,9.7C351.8,988.9,355.3,985.6,358.7,982.3z"/>
	<path class="st0" d="M380.7,959c-2.2-3.3-4.9-5.7-8-8.7c-2.2-2.1-5.2-1.7-6.3,0l2.8,5.2c0,0-0.8,0.7-1.6,1.6c0.1,2-0.1,3.7-1.3,3.7
		c-1.8,0-0.2-2.1,1.3-3.7c-0.2-3-1.3-6.8-1.3-6.8c-0.8,3.8-8.5,13.6-17.1,22.6l4.7-3c0,0-3.2,8,1,9.9c4.1,1.9,3.8,2.4,3.8,2.4
		C369.5,971.9,378.9,961.7,380.7,959z M371.7,961.8c0.4-1.6-1-3.9-1-3.9l3,2.6C373.6,960.4,372.6,961.1,371.7,961.8
		c-0.1,0.5-0.4,0.9-1,1.2C369.3,963.6,370.5,962.7,371.7,961.8z"/>
	<path class="st0" d="M349.2,972.9c0,0,0,0-0.1,0.1C349.2,973,349.2,973,349.2,972.9L349.2,972.9z"/>
	<path class="st0" d="M348.3,992L348.3,992C348.4,992,348.3,992,348.3,992L348.3,992z"/>
	<path class="st0" d="M358.7,982.3C358.7,982.3,358.7,982.3,358.7,982.3C358.7,982.3,358.7,982.3,358.7,982.3L358.7,982.3z"/>
	<path class="st0" d="M337.9,1000.8C337.9,1000.8,337.9,1000.8,337.9,1000.8C337.9,1000.8,337.9,1000.8,337.9,1000.8
		C337.9,1000.8,337.9,1000.8,337.9,1000.8z"/>
</g>
<path class="st0" d="M635.7,42.3c1.2-1.7,4.2-2.1,6.3,0c3.1,2.9,5.8,5.3,8,8.7c-3.8,5.8-42.5,45.8-54.7,49c-4.3,2.2-10,0-10,0V83.3
	c1.5-1,7.2-0.2,12.3-1.3C607.5,78.8,634.2,49.5,635.7,42.3z"/>
<path class="st0" d="M652,78.4c-1.2-1.7-4.2-2.1-6.3,0c-3.1,2.9-5.8,5.3-8,8.7c3.8,5.8,42.5,45.8,54.7,49c4.3,2.2,10,0,10,0v-16.7
	c-1.5-1-7.2-0.2-12.3-1.3C680.2,114.9,653.5,85.5,652,78.4z"/>
<path class="st0" d="M635.7-27.2c1.2-1.7,4.2-2.1,6.3,0c3.1,2.9,5.8,5.3,8,8.7c-3.8,5.8-42.5,45.8-54.7,49c-4.3,2.2-10,0-10,0V13.8
	c1.5-1,7.2-0.2,12.3-1.3C607.5,9.3,634.2-20,635.7-27.2z"/>
<path class="st0" d="M652,8.9c-1.2-1.7-4.2-2.1-6.3,0c-3.1,2.9-5.8,5.3-8,8.7c3.8,5.8,42.5,45.8,54.7,49c4.3,2.2,10,0,10,0V49.9
	c-1.5-1-7.2-0.2-12.3-1.3C680.2,45.4,653.5,16,652,8.9z"/>
<path class="st0" d="M635.7,181.3c1.2-1.7,4.2-2.1,6.3,0c3.1,2.9,5.8,5.3,8,8.7c-3.8,5.8-42.5,45.8-54.7,49c-4.3,2.2-10,0-10,0
	v-16.7c1.5-1,7.2-0.2,12.3-1.3C607.5,217.8,634.2,188.5,635.7,181.3z"/>
<path class="st0" d="M652,217.4c-1.2-1.7-4.2-2.1-6.3,0c-3.1,2.9-5.8,5.3-8,8.7c3.8,5.8,42.5,45.8,54.7,49c4.3,2.2,10,0,10,0v-16.7
	c-1.5-1-7.2-0.2-12.3-1.3C680.2,253.9,653.5,224.5,652,217.4z"/>
<path class="st0" d="M635.7,111.8c1.2-1.7,4.2-2.1,6.3,0c3.1,2.9,5.8,5.3,8,8.7c-3.8,5.8-42.5,45.8-54.7,49c-4.3,2.2-10,0-10,0
	v-16.7c1.5-1,7.2-0.2,12.3-1.3C607.5,148.3,634.2,119,635.7,111.8z"/>
<path class="st0" d="M652,147.9c-1.2-1.7-4.2-2.1-6.3,0c-3.1,2.9-5.8,5.3-8,8.7c3.8,5.8,42.5,45.8,54.7,49c4.3,2.2,10,0,10,0v-16.7
	c-1.5-1-7.2-0.2-12.3-1.3C680.2,184.4,653.5,155,652,147.9z"/>
<path class="st0" d="M635.7,320.3c1.2-1.7,4.2-2.1,6.3,0c3.1,2.9,5.8,5.3,8,8.7c-3.8,5.8-42.5,45.8-54.7,49c-4.3,2.2-10,0-10,0
	v-16.7c1.5-1,7.2-0.2,12.3-1.3C607.5,356.8,634.2,327.5,635.7,320.3z"/>
<path class="st0" d="M652,356.4c-1.2-1.7-4.2-2.1-6.3,0c-3.1,2.9-5.8,5.3-8,8.7c3.8,5.8,42.5,45.8,54.7,49c4.3,2.2,10,0,10,0v-16.7
	c-1.5-1-7.2-0.2-12.3-1.3C680.2,392.9,653.5,363.5,652,356.4z"/>
<path class="st0" d="M635.7,250.8c1.2-1.7,4.2-2.1,6.3,0c3.1,2.9,5.8,5.3,8,8.7c-3.8,5.8-42.5,45.8-54.7,49c-4.3,2.2-10,0-10,0
	v-16.7c1.5-1,7.2-0.2,12.3-1.3C607.5,287.3,634.2,258,635.7,250.8z"/>
<path class="st0" d="M652,286.9c-1.2-1.7-4.2-2.1-6.3,0c-3.1,2.9-5.8,5.3-8,8.7c3.8,5.8,42.5,45.8,54.7,49c4.3,2.2,10,0,10,0v-16.7
	c-1.5-1-7.2-0.2-12.3-1.3C680.2,323.4,653.5,294,652,286.9z"/>
<path class="st0" d="M635.7,389.8c1.2-1.7,4.2-2.1,6.3,0c3.1,2.9,5.8,5.3,8,8.7c-3.8,5.8-42.5,45.8-54.7,49c-4.3,2.2-10,0-10,0
	v-16.7c1.5-1,7.2-0.2,12.3-1.3C607.5,426.3,634.2,397,635.7,389.8z"/>
<path class="st0" d="M652,425.9c-1.2-1.7-4.2-2.1-6.3,0c-3.1,2.9-5.8,5.3-8,8.7c3.8,5.8,42.5,45.8,54.7,49c4.3,2.2,10,0,10,0v-16.7
	c-1.5-1-7.2-0.2-12.3-1.3C680.2,462.4,653.5,433,652,425.9z"/>
<g>
	<path class="st0" d="M638.4,481l-0.5,0.6C638.1,481.4,638.2,481.2,638.4,481z"/>
	<path class="st0" d="M645.8,473.1c2.1-2.4,3.7-4.2,4.3-5.1c-2.2-3.3-4.9-5.7-8-8.7c-2.2-2.1-5.2-1.7-6.3,0
		c-1.5,7.2-28.2,36.5-38,39.7c-5.1,1.1-10.8,0.3-12.3,1.3v3.8l0.9,0.4l-0.9,0.5v12c0,0,5.7,2.2,10,0c8.3-2.2,28.8-21.4,42.3-35.3
		l-3.8-4.5l4.9,3.3c1.1-1.2,2.2-2.3,3.2-3.3l-2.3-8.2L645.8,473.1z M596.1,509c-0.1-0.6,1-0.6,1,0S596.2,509.6,596.1,509z
		 M625.3,478.8l1.2,0.4l1.2,1.4L625.3,478.8z"/>
	<path class="st0" d="M645.7,473.2l-3.7,4C643.4,475.8,644.6,474.4,645.7,473.2z"/>
	<path class="st0" d="M645.8,473.1c0,0-0.1,0.1-0.1,0.1L645.8,473.1L645.8,473.1z"/>
	<path class="st0" d="M637.7,481.7l0.2-0.2C637.8,481.6,637.8,481.7,637.7,481.7L637.7,481.7z"/>
	<path class="st0" d="M638.8,480.6L638.8,480.6c-0.1,0.1-0.3,0.3-0.4,0.4L638.8,480.6z"/>
</g>
<g>
	<path class="st0" d="M642.5,506.6l1.1-4.8l-0.6-3.9c-2,1.9-3.8,3.8-5.3,6.1c0.6,0.9,2,2.5,3.9,4.7l1-0.6L642.5,506.6z"/>
	<path class="st0" d="M702.4,536.4c-1.5-1-7.2-0.2-12.3-1.3c-9.8-3.2-36.5-32.5-38-39.7c-1.2-1.7-4.2-2.1-6.3,0
		c-0.9,0.9-1.8,1.7-2.7,2.6l1.5,4.3l-1,2.5l1.4-0.4l-1.2,1l-0.9,3.6l-1.2-0.2c11,12.3,40.4,41.6,50.7,44.3c1.5,0.7,3.1,1,4.6,1
		c0,0-3.4-6.1-6-7.4c-2.6-1.3-1-8.7-1-8.7s1.1,2.4,1.4,4.4c0.3,2,2.8,0.6,5,1.2c2.2,0.6,0.6,10.4,0.6,10.4c2.9,0,5.4-1,5.4-1V536.4z
		 M684.9,539.6c0.3-0.4,1.2,0,1.2,0C685.7,541.2,684.6,540,684.9,539.6z"/>
	<polygon class="st0" points="643,497.9 643,497.9 643,497.9 	"/>
	<polygon class="st0" points="641.6,508.8 641.6,508.8 641.6,508.8 	"/>
	<polygon class="st0" points="697,554 697,554 697,554 	"/>
</g>
<g>
	<path class="st0" d="M620.2,568.2l-4.8,4.3C617,571.1,618.6,569.7,620.2,568.2z"/>
	<path class="st0" d="M624.3,564.5c-0.3,0.3-0.9,0.8-1.3,1.2C623.4,565.3,623.8,564.9,624.3,564.5z"/>
	<path class="st0" d="M617.7,558.8c-2.2-0.9,3.9,1.3,4.8,2.7c0.9,1.4,1.5,3.3,2,2.9c12.2-11.5,23.6-23.8,25.6-26.8
		c-2.2-3.3-4.9-5.7-8-8.7c-2.2-2.1-5.2-1.7-6.3,0c-1.5,7.2-28.2,36.5-38,39.7c-5.1,1.1-10.8,0.3-12.3,1.3v16.7c0,0,5.7,2.2,10,0
		c4.3-1.1,11.8-6.7,19.9-13.8l-7.1-11.2c0,0,5,0.2,4.2,0.8c-0.8,0.6,1.9,4,1.9,4l6.1,1.9c0.7-0.6,1.4-1.3,2.1-1.9
		C622.5,566.1,619.9,559.7,617.7,558.8z M629.6,538.8l0.7,1.6l3,4l5.9,1.5c0,0-3.7,5.3-3.7,3.9s0.9-1.4-3-2.7
		S629.6,538.8,629.6,538.8z M586.9,584.4c0,0,0.8-0.9,0.8,0C587.7,585.3,587.5,584.9,586.9,584.4z M590.5,585
		c-2.3,1.6-0.7-1.7-0.7-1.7h1.5C591.4,583.3,593.2,583.2,590.5,585z"/>
	<path class="st0" d="M615.3,572.7l0.1-0.1C615.4,572.6,615.3,572.6,615.3,572.7L615.3,572.7z"/>
	<path class="st0" d="M620.4,568.1L620.4,568.1c-0.1,0-0.1,0.1-0.2,0.1L620.4,568.1z"/>
	<path class="st0" d="M622.5,566.2c0,0,0.2-0.2,0.5-0.5C622.8,565.8,622.6,566,622.5,566.2C622.5,566.2,622.5,566.2,622.5,566.2z"/>
	<path class="st0" d="M624.4,564.3C624.4,564.3,624.4,564.3,624.4,564.3C624.5,564.2,624.5,564.2,624.4,564.3z"/>
	<path class="st0" d="M624.3,564.5c0.1-0.1,0.1-0.1,0.2-0.2c0,0,0,0,0,0C624.4,564.4,624.3,564.4,624.3,564.5z"/>
</g>
<g>
	<path class="st0" d="M637.7,573.5c1.3,2,6.7,7.9,13.7,15.1c-1.5-2.2-8-21.5-8-21.5C641.3,569.1,639.3,571,637.7,573.5z"/>
	<path class="st0" d="M693.9,605.1l8.5,0.8c-1.5-1-7.2-0.2-12.3-1.3c-2-0.6-4.6-2.3-7.5-4.6l0.1,0.1v7c0,0-1.1-0.5-1.8-3.4
		c-0.7-2.9,0.2-2.4,0-3.2c-0.2-0.9-1.8-3.5-1.8-3.5l0.1,0.1c-11.5-10.1-25.9-26.9-27-32.1c-1.2-1.7-4.2-2.1-6.3,0
		c-0.8,0.8-1.6,1.5-2.3,2.2c0,0,1.5,1.3,3.6,3.2c2.1,1.9,5.6,18.7,4.6,18.5c13.5,13.7,32.8,31.6,40.8,33.7c4.3,2.2,10,0,10,0v-3.9
		l-9.8-11.1L693.9,605.1z M651.8,577.5c0.6-2.5-2.7-7-2.7-7l4,3.5C653,574,651.1,580,651.8,577.5z"/>
	<path class="st0" d="M651.6,588.8C651.6,588.8,651.6,588.8,651.6,588.8c-0.1-0.1-0.1-0.1-0.2-0.2
		C651.5,588.7,651.5,588.8,651.6,588.8z"/>
	<polygon class="st0" points="643.4,567 643.4,567 643.4,567 	"/>
	<path class="st0" d="M679,597c1.2,1.1,2.4,2,3.5,2.9L679,597z"/>
</g>
<g>
	<path class="st0" d="M644.2,600.4l4.1,4.3C647.1,603.2,645.7,601.8,644.2,600.4z"/>
	<path class="st0" d="M608.2,631L608.2,631l9,7.3l-1.7,3.7c4.6-4,9.4-8.5,13.9-13l-10.8-8.1C615.2,624.5,611.6,628,608.2,631z"/>
	<path class="st0" d="M611.7,645.2c1.3-1.1,2.5-2.1,3.8-3.3l-3.1-3.4L611.7,645.2z"/>
	<path class="st0" d="M602.8,635.2L602.8,635.2c-1.9,1.3-3.7,2.3-5.1,2.8c-5.1,1.1-10.8,0.3-12.3,1.3V656c0,0,5.7,2.2,10,0
		c2.4-0.6,5.7-2.6,9.6-5.5C604.9,650.5,600,637.4,602.8,635.2z M592,651.9l-2.7-9.1l2-2.1c0,0-2,2.1,0.8,5.1S592,651.9,592,651.9z"
		/>
	<path class="st0" d="M633,625.5l-3.4,3.3C630.8,627.7,631.9,626.6,633,625.5z"/>
	<path class="st0" d="M611.6,645.3l-6.6,5.2C607.1,649,609.3,647.2,611.6,645.3z"/>
	<path class="st0" d="M630.8,606.7l3.5,2.3l-1.4-5.3l10.4,11c3.4-3.7,5.8-6.5,6.7-7.7c-0.5-0.8-1.1-1.6-1.7-2.3l-0.8,3.2
		c0,0,0.1,1-2.7,1.2l-0.7-8.7c-0.7-0.7-1.4-1.3-2.2-2c-2.2-2.1-5.2-1.7-6.3,0c-0.6,3.1-5.9,10.2-12.5,17.6l0,0l6.3,2.7l3.5,6.8
		c2.7-2.7,5.2-5.2,7.4-7.6l-8.7-8.8L630.8,606.7z"/>
	<path class="st0" d="M640.6,617.7c0.9-1,1.9-2,2.7-2.9L640.6,617.7z"/>
	<polygon class="st0" points="648.4,604.7 648.4,604.7 648.4,604.7 	"/>
	<polygon class="st0" points="644.2,600.4 644.2,600.4 644.2,600.4 	"/>
	<path class="st0" d="M640.5,617.9l0.2-0.2C640.6,617.7,640.5,617.8,640.5,617.9L640.5,617.9z"/>
	<path class="st0" d="M643.4,614.7L643.4,614.7C643.4,614.8,643.4,614.8,643.4,614.7L643.4,614.7z"/>
	<path class="st0" d="M618.7,620.8L618.7,620.8c1.5-1.6,3.1-3.3,4.5-4.9L618.7,620.8z"/>
	<path class="st0" d="M633,625.4L633,625.4C633,625.5,633,625.5,633,625.4L633,625.4z"/>
	<path class="st0" d="M629.5,629l0.1-0.1C629.6,628.9,629.5,628.9,629.5,629L629.5,629z"/>
	<polygon class="st0" points="615.6,641.9 615.6,641.9 615.6,641.9 	"/>
	<path class="st0" d="M602.9,635.1c1.6-1.2,3.4-2.6,5.3-4.2L602.9,635.1z"/>
	<path class="st0" d="M611.7,645.2L611.7,645.2c0,0-0.1,0.1-0.1,0.1L611.7,645.2z"/>
	<path class="st0" d="M605,650.5L605,650.5C605,650.5,605,650.5,605,650.5C605,650.5,605,650.5,605,650.5z"/>
</g>
<g>
	<path class="st0" d="M663.3,650.5L663.3,650.5c-3.1-3.5-5.8-6.9-7.8-9.8l0,0c0,0-6.5,8.4-5.5,3.3l2-9.6c-1.2-1.7-4.2-2.1-6.3,0
		c-3.1,2.9-5.8,5.3-8,8.7c1.8,2.8,11.9,13.7,23.2,24.6c0-0.2,0.1-0.4,0.1-0.7C659.1,661,663.3,650.5,663.3,650.5z"/>
	<path class="st0" d="M683.1,686.8l-4.8-3.7C679.9,684.4,681.6,685.7,683.1,686.8z"/>
	<path class="st0" d="M671.7,672.3c0,0,3.4-9.4,2.4-10.4c0,0,0,0,0,0c-2.5-2.4-4.9-4.9-7.3-7.5l0,0c0,0-4.9,8.8-5.8,12.4
		c0.2,0.5,0.4,1,0.6,1.4c3.8,3.6,7.7,7.2,11.5,10.5l-6.4-5.7L671.7,672.3z"/>
	<path class="st0" d="M702.4,675.4c-1.3-0.8-5.4-0.4-9.8-0.9l-0.9,2.1c0,0-1.6,2.5-2.8,2.3c-1.2-0.2,1.1-4.8,1.1-4.8
		c-3-1-7.7-4.5-12.7-9l-4.1,13.8c1.7,1.4,3.3,2.8,4.9,4.1l3.3-2c-0.4,1.7,1.7,5.9,1.7,5.9c3.8,2.7,7,4.6,9.3,5.2c4.3,2.2,10,0,10,0
		v-5.2c0,0,0-1.7-2.4-1.5c-2.4,0.2-2.4,0.2-2.4,0.2l4.9-4.5V675.4z M692.9,688.3c-0.1,0.4-0.2,0.7-0.5,0.8
		C691.6,689.4,692.2,689,692.9,688.3c0.2-1.5-0.9-4.6-1.1-5.3c0-0.1-0.1-0.1-0.1-0.1s0,0.1,0.1,0.1c0.2,0.4,0.8,1.9,1.9,3
		C694.4,686.7,693.6,687.6,692.9,688.3z"/>
	<path class="st0" d="M652,634.4c0.3,1.4,1.5,3.6,3.4,6.4L652,634.4z"/>
	<path class="st0" d="M663.3,650.6c1.1,1.3,2.3,2.6,3.5,3.9L663.3,650.6z"/>
	<path class="st0" d="M661.7,668.3C661.7,668.3,661.7,668.3,661.7,668.3c-0.3-0.2-0.5-0.5-0.8-0.7
		C660.9,668.2,661.1,668.6,661.7,668.3z"/>
	<path class="st0" d="M677.4,665c0,0-4.3-4-3.3-3.1C675.2,663,676.3,664,677.4,665L677.4,665z"/>
	<path class="st0" d="M673.2,678.8L673.2,678.8C673.2,678.8,673.2,678.8,673.2,678.8L673.2,678.8z"/>
	<path class="st0" d="M692.6,674.4L690,674C690.9,674.2,691.8,674.3,692.6,674.4L692.6,674.4z"/>
	<path class="st0" d="M683.1,686.8L683.1,686.8C683.1,686.8,683.1,686.8,683.1,686.8L683.1,686.8z"/>
	<path class="st0" d="M678.1,682.9l0.2,0.1C678.2,683,678.2,683,678.1,682.9L678.1,682.9z"/>
</g>
<g>
	<path class="st0" d="M587.7,726.1C587.7,726.1,587.7,726.1,587.7,726.1c0.5,4,9.5-1.3,9.7-1.4c-0.7,0.3-1.4,0.6-2,0.8
		C592.8,726.8,589.7,726.5,587.7,726.1z"/>
	<path class="st0" d="M601,722.8L601,722.8C601,722.8,601,722.8,601,722.8L601,722.8z"/>
	<path class="st0" d="M608.8,717.1L608.8,717.1C608.8,717.1,608.8,717.1,608.8,717.1L608.8,717.1z"/>
	<path class="st0" d="M642,667.8c-2.2-2.1-5.2-1.7-6.3,0c-0.7,3.6-7.8,12.7-15.9,21.3l0,0l13.6,5.4c8.4-8.4,15.1-15.8,16.6-18
		C647.9,673.2,645.1,670.8,642,667.8z"/>
	<path class="st0" d="M595.9,711.8l1.8-4.3c-5.1,1.1-10.8,0.3-12.3,1.3v16.7c0,0,0.9,0.4,2.3,0.6
		C587.2,722.1,595.9,711.8,595.9,711.8z"/>
	<path class="st0" d="M608.8,717.1l-7.8,5.7C603.3,721.3,605.9,719.4,608.8,717.1z"/>
	<path class="st0" d="M616.2,693C616.2,693,616.2,693,616.2,693c-7,7.1-14.3,13.2-18.4,14.5h3.1l2.5-3.1l-2.5,7.4l3.5-1.2l4.5,6.4
		c3.1-2.5,6.5-5.4,9.9-8.5C618.7,708.6,618.8,692.9,616.2,693z"/>
	<path class="st0" d="M597.4,724.7C597.4,724.7,597.4,724.7,597.4,724.7c1-0.5,2.2-1.1,3.5-2l0.1-7L597.4,724.7z"/>
</g>
<path class="st1" d="M694.3,754.3v2.3c0,0,0.9-1,0.9-1.6C695.2,754.5,694.3,754.3,694.3,754.3z"/>
<g>
	<path class="st0" d="M670.6,740.8c-1.6-0.2-4.9,0.6-5,0.6c1.1,1,2.2,2,3.3,3c-0.5-1.3-0.5-3-0.5-3S672.2,741,670.6,740.8z"/>
	<path class="st0" d="M659,715L659,715c-3.8-4.8-6.5-9-7-11.1c-1.2-1.7-4.2-2.1-6.3,0c-3.1,2.9-5.8,5.3-8,8.7
		c1.5,2.3,8.7,10.2,17.6,19C658.5,732.4,659,715,659,715z M648.2,719c-1.8-0.1-1.6-5.8-1.6-5.8s1,0.7,1.1,1.8
		C647.9,716.2,650.1,719.1,648.2,719z"/>
	<path class="st0" d="M663,719.7L663,719.7c0,0,0.7,1.6-1.5,1.7c-2.2,0.1,0.4,9.9,1,11.7c0.4,1.3-4.6-0.3-6.8-1.1
		c3.2,3.1,6.5,6.4,9.9,9.5l8.5-10C670.3,727.8,666.4,723.7,663,719.7z"/>
	<path class="st0" d="M690,743.5c-2.8-0.9-7-4-11.6-8.1c0,0,0,0,0,0s0.1,1-1.2,1.7c-1.3,0.7-4.5,8.9-6.7,8.7
		c8.9,7.9,17.3,14.4,21.9,15.6c4.3,2.2,10,0,10,0v-11.2c0,0-0.8,1.6-0.9,0.3s-1.6,0-1.6,0s-1.4,1.6-1.2-1c0.3-2.6,3.7,0.7,3.7,0.7
		v-5.5C700.9,743.9,695.2,744.7,690,743.5z M681.3,750.7c0,0-0.2,0.1-0.4,0.3c0.1,0.6,0,1.1-0.5,1.1c-0.8,0,0-0.7,0.5-1.1
		c-0.1-0.8-0.5-1.7-0.5-1.7h0.8V750.7z M693,749.9c-0.1,0,0-0.6,0.2-1.4c0-1.7-0.2-4.4-0.2-4.4h1.8c0,0-1.1,2.7-1.6,4.4
		C693.2,749.3,693.1,749.9,693,749.9z"/>
	<path class="st0" d="M655.3,731.6C655.3,731.6,655.3,731.6,655.3,731.6c-1-0.3-0.6,0,0.4,0.4C655.6,731.8,655.4,731.7,655.3,731.6z
		"/>
	<path class="st0" d="M659.9,713.9L659,715c1.2,1.5,2.5,3.1,3.9,4.7L659.9,713.9z"/>
	<polygon class="st0" points="665.6,741.5 665.6,741.5 665.6,741.5 	"/>
	<path class="st0" d="M670.5,745.9C670.5,745.9,670.5,745.9,670.5,745.9c-0.5-0.5-1.1-1-1.6-1.4
		C669.2,745.3,669.7,745.9,670.5,745.9z"/>
	<path class="st0" d="M674.1,731.5L674.1,731.5c1.4,1.4,2.9,2.7,4.3,4C678.4,735.4,676,731.6,674.1,731.5z"/>
</g>
<g>
	<path class="st0" d="M592.6,795.8c1-0.1,1.9-0.4,2.8-0.8c1.8-0.5,4.1-1.7,6.8-3.5C601.7,791.7,595.3,795,592.6,795.8
		C592.6,795.8,592.6,795.8,592.6,795.8z"/>
	<path class="st0" d="M617.7,779l-3.3,2.9C615.5,781,616.6,780,617.7,779z"/>
	<path class="st0" d="M632.7,755.4c5.9,1.1,5,4.3,5,4.3c6.3-6.5,11.1-11.9,12.3-13.7c-2.2-3.3-4.9-5.7-8-8.7c-2.2-2.1-5.2-1.7-6.3,0
		c-0.3,1.3-1.4,3.3-3,5.8l0,0C632.7,743.1,626.8,754.3,632.7,755.4z M637.8,743.7c0,0-1.2,2.8-1.1,1.6c0.2-1.2-0.9-1.6-0.9-1.6
		H637.8z"/>
	<path class="st0" d="M628.1,749.2C628.1,749.3,628.1,749.3,628.1,749.2C628.1,749.3,628.1,749.3,628.1,749.2L628.1,749.2z"/>
	<path class="st0" d="M599.2,784.5c0,0,0.3-2.7-1.5-2.4c-1.9,0.3-3.8,2.4-3.8,2.4l3.8-7.5c-5.1,1.1-10.8,0.3-12.3,1.3V795
		c0,0,3.4,1.3,6.9,0.9C590.5,795.8,599.2,784.5,599.2,784.5z"/>
	<path class="st0" d="M627.6,749.8c-7.8,9.5-19.3,21.1-26.6,25.6l0,0l2.1,6.7l-0.9,9.4c3.5-2.3,7.6-5.6,12-9.4c0,0,1.9-8.3-1.3-10.9
		c-3.2-2.6,10.6,2.5,10.6,2.5c3.2-3,6.4-6.1,9.4-9.1C632.9,764.6,626.1,753,627.6,749.8z M608.8,776.4c-0.1,1.8-0.5-0.1-0.8-2.2
		c-0.7-0.4-1.7-0.1-1.7-0.1l1.3-3.7c0,0,0.2,1.9,0.5,3.7C608.5,774.5,608.9,775.1,608.8,776.4z"/>
	<path class="st0" d="M633,764.5c1.6-1.6,3.1-3.2,4.6-4.7L633,764.5z"/>
	<path class="st0" d="M623.4,773.8l-5.3,4.8C619.9,777,621.7,775.4,623.4,773.8z"/>
	<path class="st0" d="M617.9,778.8l0.2-0.2c-0.2,0.1-0.3,0.3-0.5,0.4L617.9,778.8z"/>
	<path class="st0" d="M623.5,773.7L623.5,773.7C623.5,773.7,623.5,773.7,623.5,773.7L623.5,773.7z"/>
	<path class="st0" d="M614.2,782.1l0.2-0.1C614.3,782,614.3,782,614.2,782.1C614.2,782.1,614.2,782.1,614.2,782.1z"/>
	<path class="st0" d="M602.2,791.5L602.2,791.5C602.2,791.5,602.2,791.5,602.2,791.5C602.2,791.5,602.2,791.5,602.2,791.5z"/>
	<path class="st0" d="M592.6,795.8c-0.1,0-0.2,0-0.3,0C592.4,795.9,592.4,795.9,592.6,795.8z"/>
	<path class="st0" d="M597.7,777c1-0.3,2.1-0.9,3.3-1.6L597.7,777z"/>
	<path class="st0" d="M632.9,764.6l0.1-0.1C633,764.5,632.9,764.5,632.9,764.6L632.9,764.6z"/>
	<path class="st0" d="M637.7,759.7C637.7,759.7,637.7,759.7,637.7,759.7c0,0-0.1,0.1-0.1,0.1L637.7,759.7z"/>
	<path class="st0" d="M628.1,749.2c1.8-2.2,3.4-4.3,4.6-6.1L628.1,749.2z"/>
	<path class="st0" d="M627.6,749.8c0.1-0.2,0.3-0.3,0.4-0.5C627.9,749.4,627.7,749.6,627.6,749.8z"/>
</g>
<g>
	<path class="st0" d="M656.6,806.8l-6.9-7C651.8,802.1,654.2,804.4,656.6,806.8z"/>
	<path class="st0" d="M702.4,818.9c-1.5-1-7.2-0.2-12.3-1.3c-5.4-1.7-15.9-11.4-24.5-20.9l0,0c0,0,2.5,2.7-2.5,2.7
		c-4.9,0-6.3,7.6-6.4,7.7c3.2,3.1,6.5,6.3,9.8,9.4c-1.1-3.6,1.8-11.9,1.8-11.9s4.6,14,0,13.5c3.5,3.2,6.9,6.1,10.1,8.7
		c-0.1-0.1-3-5.6,0-6.1c3-0.5,0,6.1,0,6.1c5.7,4.6,10.8,8,14,8.9c4.3,2.2,10,0,10,0v-5.3l-3.7-3.5l3.7-1.3V818.9z M681.3,823.6
		c4.1,0.3,3.7-3.1,3.7-3.1l1.3,4.9C686.3,825.4,677.2,823.3,681.3,823.6z M692.9,826.7c-0.9,3.1-2.3-0.5-3.1-3.7
		C689.8,822.9,693.8,823.6,692.9,826.7z"/>
	<path class="st0" d="M658.9,795.9c-6.2-0.2-2.4-10.3-2.4-10.3l0.1,0.1c-2.5-3.4-4.2-6.2-4.5-7.9c-1.2-1.7-4.2-2.1-6.3,0
		c-3.1,2.9-5.8,5.3-8,8.7c1.2,1.8,5.8,7,12,13.3C649.7,799.8,665.1,796.1,658.9,795.9z"/>
	<path class="st0" d="M659.3,789.3c0-0.1-0.1-0.1-0.1-0.2L659.3,789.3L659.3,789.3z"/>
	<path class="st0" d="M656.6,785.7c0.8,1.1,1.7,2.2,2.6,3.4L656.6,785.7z"/>
	<path class="st0" d="M649.7,799.8L649.7,799.8C649.7,799.9,649.7,799.9,649.7,799.8L649.7,799.8z"/>
	<path class="st0" d="M656.7,807C656.7,807,656.7,807,656.7,807c0-0.1-0.1-0.1-0.1-0.1L656.7,807z"/>
	<path class="st0" d="M659.3,789.3c1.9,2.3,4,4.8,6.2,7.3L659.3,789.3z"/>
	<path class="st0" d="M668.3,817.9C668.3,817.9,668.3,817.9,668.3,817.9c-0.6-0.5-1.2-1.1-1.8-1.6
		C666.8,817.2,667.4,817.9,668.3,817.9z"/>
	<polygon class="st0" points="678.4,826.7 678.4,826.7 678.4,826.7 	"/>
</g>
<g>
	<path class="st0" d="M607.5,861.6l-6.8,4.8C602.7,865.2,605,863.5,607.5,861.6z"/>
	<path class="st0" d="M597.7,851c0,0,0.9,3.5,2.1,3.4c1.2-0.1,4.4-0.5,6.5-0.8s-1.5,5.2-1.5,5.2l2.7,2.8c4.9-3.8,10.5-8.7,15.9-13.8
		c0.1-6.4-3.7-14.9-3.7-14.9C611.7,841.4,602.6,849.4,597.7,851z"/>
	<path class="st0" d="M592,862.2c-2.6-0.4,8.5-3.2,5.6-5.1c-3-1.9,0.1-6.1,0.1-6.1c-5.1,1.1-10.8,0.3-12.3,1.3V869c0,0,5.7,2.2,10,0
		c1.4-0.4,3.2-1.3,5.3-2.5c-0.1,0-4,0-5.5,0C593.6,866.5,594.6,862.6,592,862.2z"/>
	<path class="st0" d="M623.5,833.3c1.8-1,11.5,3.2,11.5,3.2c7.7-7.7,13.7-14.4,15.1-16.5c-2.2-3.3-4.9-5.7-8-8.7
		c-2.2-2.1-5.2-1.7-6.3,0c-0.8,3.6-7.8,12.8-16,21.4C619.7,832.8,621.7,834.3,623.5,833.3z M630.2,820.5l4.8,6.2
		c0,0,1.3,5.7-2.4,1.1C628.9,823.2,630.2,820.5,630.2,820.5z"/>
	<polygon class="st0" points="619.7,832.8 619.7,832.8 619.7,832.8 	"/>
	<path class="st0" d="M623.5,847.7C623.5,847.7,623.5,847.7,623.5,847.7c3-2.1,5.6-4.9,5.6-4.9l5.9-6.4l0,0
		C631.4,840.1,627.5,844,623.5,847.7z"/>
	<path class="st0" d="M600.6,866.5L600.6,866.5C600.7,866.5,600.7,866.5,600.6,866.5C600.6,866.5,600.6,866.5,600.6,866.5z"/>
	<path class="st0" d="M607.6,861.5L607.6,861.5c0,0-0.1,0-0.1,0.1L607.6,861.5z"/>
</g>
<g>
	<path class="st0" d="M637.6,903.3l-5.1,5.2C634.3,906.7,636,905,637.6,903.3z"/>
	<path class="st0" d="M589,939.3l1.9-4.9c0,0,14-6.7,8.9-6.7s-4.6-6.8-4.6-6.8l0,0c-4.3,0.5-8.6,0.1-9.8,0.9v16.7
		c0,0,3.4,1.3,6.9,0.9C591.2,938.3,589,939.3,589,939.3z"/>
	<path class="st0" d="M625.1,896.3L625.1,896.3c-9,10.5-21.3,22.2-27.4,24.2l6.3,5.1l5.4-7.8l-1.8,13.2c2.8-2.2,5.7-4.7,8.8-7.4
		c0,0,0.4-0.4,1.2-1.1c0,0,0.1-0.1,0.1-0.1c5.7-5,2-13,2-13s5.4,4.3,6.8,4.8c2-1.9,4-3.8,5.8-5.7c0,0-0.1,0-5.1-1
		C622.3,906.6,625.1,896.3,625.1,896.3z"/>
	<path class="st0" d="M645.5,886.4l1,7.5c1.8-2,3-3.5,3.6-4.3c-2.2-3.3-4.9-5.7-8-8.7c-2.2-2.1-5.2-1.7-6.3,0
		c-0.5,2.3-3.5,6.9-7.8,12.1c1.2,0.9,3.9,3.2,2.1,3.4c-2.3,0.3-0.4,7.8,2.6,7.8c3,0,5.1-0.9,5.1-0.9c1.6-1.6,3.1-3.2,4.4-4.6
		C641.2,899.6,645.5,886.4,645.5,886.4z M636.3,892.6c-1,1.1,1.4-6.2,1.4-6.2S640.3,888.3,636.3,892.6z"/>
	<path class="st0" d="M642.4,898.3c1.5-1.6,2.8-3.1,4-4.3C645.8,894.6,643.5,897.1,642.4,898.3z"/>
	<path class="st0" d="M592.3,939.4c0,0,0.1,0,0.1,0.1c5.5-0.3,15.2-8.4,15.2-8.4l0,0c-5,3.9-9.4,6.7-12.2,7.5
		C594.4,939,593.3,939.3,592.3,939.4z"/>
	<path class="st0" d="M595.2,920.9c0.8-0.1,1.7-0.2,2.5-0.4L595.2,920.9z"/>
	<path class="st0" d="M617.7,922.5C617.7,922.5,617.7,922.5,617.7,922.5c-0.5,0.4-0.9,0.8-1.3,1.2c-0.1,0.2,10.3-8.7,10.2-9.4
		c0,0,0,0,0,0C623.7,917.1,620.7,919.8,617.7,922.5C617.7,922.5,617.7,922.5,617.7,922.5z"/>
	<path class="st0" d="M632.4,908.6L632.4,908.6C632.5,908.5,632.4,908.5,632.4,908.6C632.4,908.6,632.4,908.6,632.4,908.6z"/>
	<path class="st0" d="M627.4,892.6l-2.3,3.8c1-1.1,1.9-2.3,2.8-3.4C627.6,892.7,627.4,892.6,627.4,892.6z"/>
	<path class="st0" d="M637.7,903.2C637.7,903.2,637.7,903.2,637.7,903.2c0,0-0.1,0.1-0.1,0.1L637.7,903.2z"/>
	<path class="st0" d="M646.5,893.8L646.5,893.8c0,0-0.1,0.1-0.1,0.1C646.4,893.9,646.5,893.8,646.5,893.8z"/>
	<path class="st0" d="M642.1,898.6c0.1-0.1,0.2-0.2,0.3-0.3C642.3,898.4,642.2,898.5,642.1,898.6
		C642.1,898.6,642.1,898.6,642.1,898.6z"/>
</g>
<path class="st0" d="M690,956.5c-9.8-3.2-36.5-32.5-38-39.7c-1.2-1.7-4.2-2.1-6.3,0c-3.1,2.9-5.8,5.3-8,8.7
	c3.8,5.8,42.5,45.8,54.7,49c4.3,2.2,10,0,10,0v-16.7C700.9,956.9,695.2,957.7,690,956.5z M651.4,927.2c-4.6,0-3-5.1-3-5.1l3,1.6
	C651.4,923.8,655.9,927.2,651.4,927.2z"/>
<g>
	<path class="st0" d="M650.7,870.4l-5-5.2C647.3,866.9,649,868.6,650.7,870.4z"/>
	<path class="st0" d="M648.1,863c3.6-0.9,7-1.1,7-1.1l2.3-5.5l0,0c-3-3.9-5-7.2-5.4-9.1c-1.2-1.7-4.2-2.1-6.3,0
		c-3.1,2.9-5.8,5.3-8,8.7c0.9,1.4,3.9,4.8,8,9.1C645.6,865,644.7,863.8,648.1,863z"/>
	<path class="st0" d="M702.4,894.1v-5.8c-1.5-1-7.2-0.2-12.3-1.3c-6.3-2-19.6-14.9-28.7-25.7l0,0l-10.6,9.1
		c7.4,7.6,16.9,16.7,25.2,23.7l1.1-7.8c0,0-0.6,4.5,1.4,6.1c2,1.6-2.4,1.6-2.5,1.6c6.8,5.7,12.8,9.9,16.4,10.9c4.3,2.2,10,0,10,0
		v-5.3c0,0-1.8-0.2-5.9-2.3C692.5,895.2,702.4,894.1,702.4,894.1z M668.3,886.4c0,0,0.8-7.3,1.8-8.1s0.9,4,0.9,4L668.3,886.4z
		 M689.8,899.7c-1.5,0-1.5-2-1.1-3.8c0.4-1.7,1.1-3.3,1.1-3.3S692.7,899.8,689.8,899.7z"/>
	<path class="st0" d="M657.5,856.4c1.2,1.6,2.5,3.2,3.9,4.9L657.5,856.4z"/>
	<path class="st0" d="M645.7,865.2L645.7,865.2C645.7,865.2,645.7,865.2,645.7,865.2C645.7,865.2,645.7,865.2,645.7,865.2z"/>
	<path class="st0" d="M650.8,870.5L650.8,870.5C650.8,870.5,650.7,870.4,650.8,870.5L650.8,870.5z"/>
	<polygon class="st0" points="675.9,894.1 675.9,894.1 675.9,894.1 	"/>
</g>
<path class="st0" d="M690,1026c-9.8-3.2-36.5-32.5-38-39.7c-1.2-1.7-4.2-2.1-6.3,0c-3.1,2.9-5.8,5.3-8,8.7
	c3.8,5.8,42.5,45.8,54.7,49c4.3,2.2,10,0,10,0v-16.7C700.9,1026.4,695.2,1027.2,690,1026z M650.8,995.5c-4.1,0,2.6-6,2.6-6
	S654.9,995.5,650.8,995.5z"/>
<g>
	<path class="st0" d="M615.1,978.9c0.9-3,3-5.4,3.4-5.9c-7.7,8.1-16.2,15.5-20.8,17l3.3-0.6v4.2c0,0,1.4-2.7,4.4,1.9
		c2.7,4.1,2,5.1,1.9,5.3c3.3-2.5,6.8-5.5,10.4-8.8C617.7,992,614.1,982.3,615.1,978.9z"/>
	<path class="st0" d="M595.2,1005.4c-1.4,0-0.3-0.6,1.7-1.3c1.9-3.7,0.8-14.1,0.8-14.1c-5.1,1.1-10.8,0.3-12.3,1.3v16.7
		c0,0,5.7,2.2,10,0c2.8-0.7,7-3.4,11.9-7.2c-0.2,0-6.8,1.9-10.4,3.3C596.5,1004.9,595.9,1005.4,595.2,1005.4z"/>
	<path class="st0" d="M628.1,982.3l-10.4,9.7C621.2,988.9,624.7,985.6,628.1,982.3z"/>
	<path class="st0" d="M650,959c-2.2-3.3-4.9-5.7-8-8.7c-2.2-2.1-5.2-1.7-6.3,0l2.8,5.2c0,0-0.8,0.7-1.6,1.6c0.1,2-0.1,3.7-1.3,3.7
		c-1.8,0-0.2-2.1,1.3-3.7c-0.2-3-1.3-6.8-1.3-6.8c-0.8,3.8-8.5,13.6-17.1,22.6l4.7-3c0,0-3.2,8,1,9.9c4.1,1.9,3.8,2.4,3.8,2.4
		C638.9,971.9,648.3,961.7,650,959z M641.1,961.8c0.4-1.6-1-3.9-1-3.9l3,2.6C643,960.4,642,961.1,641.1,961.8
		c-0.1,0.5-0.4,0.9-1,1.2C638.7,963.6,639.8,962.7,641.1,961.8z"/>
	<path class="st0" d="M618.6,972.9c0,0,0,0-0.1,0.1C618.6,973,618.6,973,618.6,972.9L618.6,972.9z"/>
	<path class="st0" d="M617.7,992L617.7,992C617.7,992,617.7,992,617.7,992L617.7,992z"/>
	<path class="st0" d="M628.1,982.3C628.1,982.3,628.1,982.3,628.1,982.3C628.1,982.3,628.1,982.3,628.1,982.3L628.1,982.3z"/>
	<path class="st0" d="M607.3,1000.8C607.3,1000.8,607.3,1000.8,607.3,1000.8C607.3,1000.8,607.3,1000.8,607.3,1000.8
		C607.2,1000.8,607.3,1000.8,607.3,1000.8z"/>
</g>
</svg>
