<svg xmlns="http://www.w3.org/2000/svg" xmlns:xlink="http://www.w3.org/1999/xlink" viewBox="0 0 120.37 92.57"><defs><style>.cls-1{fill:#f2fcfe;}.cls-2{fill:url(#Dégradé_sans_nom_15);}.cls-3{fill:url(#Dégradé_sans_nom_17);}</style><linearGradient id="Dégradé_sans_nom_15" x1="73.81" y1="-80.86" x2="105.8" y2="-59.91" gradientTransform="matrix(-0.28, -0.66, 0.97, -0.41, 154.36, 76.6)" gradientUnits="userSpaceOnUse"><stop offset="0" stop-color="#f2fcfe"/><stop offset="1" stop-color="#b2d4eb"/></linearGradient><linearGradient id="Dégradé_sans_nom_17" x1="60.1" y1="21.98" x2="59.77" y2="-16.81" gradientUnits="userSpaceOnUse"><stop offset="0" stop-color="#b2d4eb"/><stop offset="1" stop-color="#7fb5dd"/></linearGradient></defs><title>Fichier 4</title><g id="Calque_2" data-name="Calque 2"><g id="Calque_1-2" data-name="Calque 1"><path class="cls-1" d="M118.47,74.61c-.58,1.19-2.1.62-2.95,1.57s1.68.36,1,2C96,87.5,69.17,91.74,61.26,92.45s8.36-2.07,6.74-3.6S27.52,93.49,27.2,92.39s3.52-.75,3.37-1.8-5.94-3-10.61-3.66c-.68-1.28,2.73-.2,2.53-1.35S12.4,78.44,4.72,78.25c-.58-1.08,2.21.08,2.1-1.12,0,0-3.83-3.37-3.57-4.65S5,70.66,7.47,70.22c5.85,9.86,26.7-2.45,66.64,8.3,6.86,1.3-1.31-2.7-1.89-3.53,4.57,1.72,35.9-6.83,43.53-8.51C118.69,70,119.05,73.42,118.47,74.61Z"/><path class="cls-2" d="M119.71,49.09c.13.83-23.73,8.84-38.35,7.25-26.16.84-60.75,2.71-67.32-2.8,1.94-2.38,5.55-1.41,5.55-1.41s-4.27-1.25-4.49-2.29,4-.05,1.64-2.31S3.18,42.43,3.61,40.68c1.74-.34,4.07-.34,5-1.07S8,38,8.23,36.66s1.58.12,1.93,1-2.68-3.59-2-4.76,17.58,9.49,21.27,8.77C27.89,37.8,39.48,47.81,73,44.88c3.5-.49-1.1-.72.58-1.72s39.39-7.37,42-9.57c4.28-.18,5.44,8.77,4.49,10.65A5.47,5.47,0,0,1,117,46.71S119.58,48.27,119.71,49.09Z"/><path class="cls-3" d="M116.84,12.13c-1.72-.8-16.44,3.62-16.44,3.62s4.07-2.09,1.38-1.3C61.22,23,15.06,23.35,12.52,15.64c3-1-8.25-1.59-8.84-2.17s4.62-1.3,4.62-1.3-5.66-.9-5.47-1.7,3.47-1,3.47-1a18.91,18.91,0,0,1-2-1c-.91-.56,5.89,0,8.95-1S.53,6,0,4.24a30.23,30.23,0,0,0,6.41.62S1.73,3.32,1.5,2.5s2.1-2,4.85-1.37c4,3,27.22,3.42,27.22,3.42S33.37,7,32.64,5.91c10.9,3,54.55-2.13,54.55-2.13a1.41,1.41,0,0,1-.71-1.62C90.12,2.72,96.84-.1,99.37,0a5,5,0,0,1,3.72,1.69s-3.87,2.59-2.41,3.05,6.79-.81,8.2-.22-.72-.18-.72-.18,2.72-2.15,3.82-1.48-.5,1.76-.5,1.76S108.13,8.78,110,8.18a78.59,78.59,0,0,1,9-2.54,6.74,6.74,0,0,1-3,3.48s3.73-.92,3.94-.2-1.86,1.15-3.38,2.17S118.56,12.93,116.84,12.13Z"/></g></g></svg>